<svg width="748" height="749" xmlns="http://www.w3.org/2000/svg" xmlns:xlink="http://www.w3.org/1999/xlink" xml:space="preserve" overflow="hidden"><defs><clipPath id="clip0"><rect x="-1121" y="774" width="748" height="749"/></clipPath></defs><g clip-path="url(#clip0)" transform="translate(1121 -774)"><path d="M-1121 1148.5C-1121 941.669-953.555 774-747 774-540.445 774-373 941.669-373 1148.5-373 1355.33-540.445 1523-747 1523-953.555 1523-1121 1355.33-1121 1148.5Z" fill="#6B6E74" fill-rule="evenodd"/><path d="M-944.828 973C-927.587 973-913.324 977.898-902.04 987.693-890.755 997.488-884.837 1012.33-884.284 1032.21-883.732 1052.09-889.654 1086.3-902.05 1134.84-920.734 1207.06-930 1257.79-929.85 1287.02-929.699 1316.26-924.817 1336.95-915.203 1349.08-905.59 1361.22-890.085 1369.77-868.689 1374.74L-736.41 985.281-688.633 985.281-820.912 1374.74C-796.922 1370.36-776.025 1362.17-758.217 1350.18-740.41 1338.19-721.527 1317.87-701.567 1289.22-681.607 1260.56-655.752 1208.96-624 1134.4-597.495 1072.7-573.477 1030.38-551.947 1007.43-530.416 984.477-503.433 973-470.997 973-459.893 973-444.227 975.486-424 980.456L-428.91 994.929C-441.476 994.929-451.573 997.122-459.203 1001.51-469.86 1007.94-480.5 1019.05-491.122 1034.84-501.745 1050.63-516.448 1079.72-535.232 1122.12-565.189 1190.54-591.664 1240.1-614.658 1270.8-631.657 1293.31-653.055 1314.58-678.853 1334.61-704.65 1354.64-729.417 1369.7-753.153 1379.78-776.888 1389.87-802.256 1396.38-829.253 1399.3L-864.816 1504-892.922 1493.71-906.578 1486.29-877.031 1399.3C-915.083 1394.33-945.165 1380.52-967.275 1357.86-989.386 1335.2-1001.84 1306.47-1004.63 1271.67-1006.8 1245.36-999.407 1195.22-982.463 1121.24-972.336 1076.8-967.174 1046.97-966.977 1031.77-966.781 1016.57-969.831 1006.19-976.127 1000.63-980.095 996.83-988.946 994.929-1002.68 994.929L-997.77 980.456C-971.534 975.486-953.887 973-944.828 973Z" fill-rule="evenodd"/></g></svg>