<svg width="748" height="748" xmlns="http://www.w3.org/2000/svg" xmlns:xlink="http://www.w3.org/1999/xlink" xml:space="preserve" overflow="hidden"><defs><clipPath id="clip0"><rect x="1206" y="740" width="748" height="748"/></clipPath></defs><g clip-path="url(#clip0)" transform="translate(-1206 -740)"><path d="M1206 1114C1206 907.446 1373.45 740 1580 740 1786.55 740 1954 907.446 1954 1114 1954 1320.55 1786.55 1488 1580 1488 1373.45 1488 1206 1320.55 1206 1114Z" fill-rule="evenodd"/><path d="M1382.17 939C1399.41 939 1413.68 943.889 1424.96 953.665 1436.24 963.441 1442.16 978.253 1442.72 998.097 1443.27 1017.94 1437.35 1052.09 1424.95 1100.53 1406.27 1172.62 1397 1223.25 1397.15 1252.43 1397.3 1281.62 1402.18 1302.26 1411.8 1314.38 1421.41 1326.49 1436.91 1335.02 1458.31 1339.98L1590.59 951.257 1638.37 951.257 1506.09 1339.98C1530.08 1335.61 1550.98 1327.44 1568.78 1315.47 1586.59 1303.5 1605.47 1283.22 1625.43 1254.62 1645.39 1226.02 1671.25 1174.51 1703 1100.09 1729.5 1038.52 1753.52 996.273 1775.05 973.364 1796.58 950.455 1823.57 939 1856 939 1867.11 939 1882.77 941.481 1903 946.442L1898.09 960.888C1885.52 960.888 1875.43 963.077 1867.8 967.454 1857.14 973.875 1846.5 984.965 1835.88 1000.72 1825.26 1016.48 1810.55 1045.52 1791.77 1087.84 1761.81 1156.13 1735.34 1205.59 1712.34 1236.24 1695.34 1258.71 1673.94 1279.94 1648.15 1299.93 1622.35 1319.92 1597.58 1334.95 1573.85 1345.02 1550.11 1355.09 1524.74 1361.58 1497.75 1364.5L1462.18 1469 1434.08 1458.73 1420.42 1451.32 1449.97 1364.5C1411.92 1359.54 1381.84 1345.75 1359.72 1323.13 1337.61 1300.51 1325.16 1271.84 1322.37 1237.11 1320.2 1210.85 1327.59 1160.8 1344.54 1086.96 1354.66 1042.6 1359.83 1012.83 1360.02 997.659 1360.22 982.484 1357.17 972.124 1350.87 966.579 1346.9 962.785 1338.05 960.888 1324.32 960.888L1329.23 946.442C1355.47 941.481 1373.11 939 1382.17 939Z" fill="#FFFFFF" fill-rule="evenodd"/></g></svg>