<svg width="2019" height="2019" xmlns="http://www.w3.org/2000/svg" xmlns:xlink="http://www.w3.org/1999/xlink" xml:space="preserve" overflow="hidden"><g transform="translate(-1120 -2021)"><path d="M1175.83 3030.86C1175.83 2503.98 1602.95 2076.86 2129.83 2076.86 2656.71 2076.86 3083.83 2503.98 3083.83 3030.86 3083.83 3557.74 2656.71 3984.86 2129.83 3984.86 1602.95 3984.86 1175.83 3557.74 1175.83 3030.86Z" stroke="#F2F2F2" stroke-width="110.286" stroke-miterlimit="8" fill="none" fill-rule="evenodd"/><path d="M1869 2407.27C2354.73 2203.47 2865.92 2318.12 3010.79 2663.35 3155.69 3008.58 2879.4 3453.66 2393.68 3657.46 1907.95 3861.25 1396.76 3746.6 1251.86 3401.37 1106.99 3056.14 1383.28 2611.06 1869 2407.27Z" stroke="#F2F2F2" stroke-width="78.7763" stroke-miterlimit="8" fill="none" fill-rule="evenodd"/><path d="M1623.21 3251.12C1414.84 2767.38 1473.23 2277.3 1753.56 2156.48 2033.93 2035.66 2430.11 2329.87 2638.47 2813.6 2846.8 3297.34 2788.45 3787.42 2508.08 3908.24 2227.75 4029.06 1831.57 3734.86 1623.21 3251.12Z" stroke="#F2F2F2" stroke-width="78.7763" stroke-miterlimit="8" fill="none" fill-rule="evenodd"/><path d="M2269.55 2817.46C2334.24 2815.95 2381.21 2831.66 2395.15 2864.95 2423.05 2931.52 2308.31 3043.22 2138.87 3114.41 1969.4 3185.61 1809.41 3189.36 1781.51 3122.78 1753.61 3056.2 1868.36 2944.51 2037.8 2873.31 2122.55 2837.71 2204.9 2818.98 2269.55 2817.46Z" stroke="#F2F2F2" stroke-width="78.7763" stroke-miterlimit="8" fill="none" fill-rule="evenodd"/><path d="M1755.33 2158.36 1986.33 2684.36" stroke="#F2F2F2" stroke-width="78.7763" stroke-miterlimit="8" fill="none" fill-rule="evenodd"/><path d="M2278.34 3385.36 2508.34 3911.36" stroke="#F2F2F2" stroke-width="78.7763" stroke-miterlimit="8" fill="none" fill-rule="evenodd"/><path d="M2648.68 2524.54C2834.36 2521.11 2969.45 2567.31 3010 2663.95 3091.14 2857.23 2763.25 3179.08 2277.69 3382.82 1792.13 3586.57 1332.76 3595.05 1251.65 3401.77 1170.55 3208.49 1498.44 2886.64 1983.96 2682.9 2226.76 2581.03 2462.99 2527.97 2648.68 2524.54Z" stroke="#F2F2F2" stroke-width="94.5314" stroke-miterlimit="8" fill="#FFC000" fill-rule="evenodd"/><path d="M2308.3 2788.7C2383.29 2785.73 2437.37 2802.35 2452.91 2839.26 2483.9 2913.09 2348.75 3040.14 2150.98 3123.04 1953.22 3205.94 1767.79 3213.29 1736.76 3139.46 1705.76 3065.64 1840.91 2938.59 2038.68 2855.69 2137.55 2814.23 2233.35 2791.67 2308.3 2788.7Z" stroke="#F2F2F2" stroke-width="3.4375" stroke-miterlimit="8" fill="#FFFFFF" fill-rule="evenodd"/></g></svg>