<svg width="2019" height="2018" xmlns="http://www.w3.org/2000/svg" xmlns:xlink="http://www.w3.org/1999/xlink" xml:space="preserve" overflow="hidden"><g transform="translate(-1592 -1467)"><path d="M1647.83 2476.36C1647.83 1949.76 2074.95 1522.86 2601.83 1522.86 3128.71 1522.86 3555.83 1949.76 3555.83 2476.36 3555.83 3002.96 3128.71 3429.86 2601.83 3429.86 2074.95 3429.86 1647.83 3002.96 1647.83 2476.36Z" stroke="#6B6E74" stroke-width="110.286" stroke-miterlimit="8" fill="none" fill-rule="evenodd"/><path d="M2341 1853.27C2826.73 1649.47 3337.92 1764.12 3482.79 2109.35 3627.69 2454.58 3351.4 2899.66 2865.68 3103.46 2379.95 3307.25 1868.76 3192.6 1723.86 2847.37 1578.99 2502.14 1855.28 2057.06 2341 1853.27Z" stroke="#6B6E74" stroke-width="78.7763" stroke-miterlimit="8" fill="none" fill-rule="evenodd"/><path d="M2095.31 2697.12C1886.78 2213.38 1945.21 1723.3 2225.76 1602.48 2506.35 1481.66 2902.84 1775.87 3111.37 2259.6 3319.87 2743.34 3261.46 3233.42 2980.88 3354.24 2700.33 3475.06 2303.84 3180.86 2095.31 2697.12Z" stroke="#6B6E74" stroke-width="78.7763" stroke-miterlimit="8" fill="none" fill-rule="evenodd"/><path d="M2741.55 2263.46C2806.24 2261.95 2853.21 2277.62 2867.15 2310.81 2895.05 2377.2 2780.31 2488.58 2610.87 2559.57 2441.4 2630.57 2281.41 2634.3 2253.51 2567.91 2225.61 2501.53 2340.36 2390.15 2509.8 2319.15 2594.55 2283.66 2676.9 2264.97 2741.55 2263.46Z" stroke="#6B6E74" stroke-width="78.7763" stroke-miterlimit="8" fill="none" fill-rule="evenodd"/><path d="M2228.34 1603.36 2458.34 2129.36" stroke="#6B6E74" stroke-width="78.7763" stroke-miterlimit="8" fill="none" fill-rule="evenodd"/><path d="M2750.34 2831.36 2980.34 3356.36" stroke="#6B6E74" stroke-width="78.7763" stroke-miterlimit="8" fill="none" fill-rule="evenodd"/><path d="M3121.47 1969.54C3307.25 1966.11 3442.42 2012.31 3482.99 2108.95 3564.18 2302.23 3236.11 2624.08 2750.27 2827.82 2264.44 3031.57 1804.81 3040.05 1723.66 2846.77 1642.51 2653.49 1970.58 2331.64 2456.38 2127.9 2699.31 2026.03 2935.68 1972.97 3121.47 1969.54Z" stroke="#6B6E74" stroke-width="94.5314" stroke-miterlimit="8" fill="#6B6E74" fill-rule="evenodd"/><path d="M2781.09 2233.7C2856.18 2230.73 2910.34 2247.35 2925.9 2284.26 2956.94 2358.09 2821.6 2485.14 2623.56 2568.04 2425.52 2650.94 2239.83 2658.29 2208.76 2584.46 2177.72 2510.64 2313.06 2383.59 2511.1 2300.69 2610.1 2259.23 2706.04 2236.67 2781.09 2233.7Z" stroke="#6B6E74" stroke-width="3.4375" stroke-miterlimit="8" fill-rule="evenodd"/></g></svg>