<svg width="2019" height="2018" xmlns="http://www.w3.org/2000/svg" xmlns:xlink="http://www.w3.org/1999/xlink" xml:space="preserve" overflow="hidden"><g transform="translate(-1098 -1722)"><path d="M1153.83 2731.36C1153.83 2204.76 1580.95 1777.86 2107.83 1777.86 2634.71 1777.86 3061.83 2204.76 3061.83 2731.36 3061.83 3257.96 2634.71 3684.86 2107.83 3684.86 1580.95 3684.86 1153.83 3257.96 1153.83 2731.36Z" stroke="#000000" stroke-width="110.286" stroke-miterlimit="8" fill="none" fill-rule="evenodd"/><path d="M1847 2108.27C2332.73 1904.47 2843.92 2019.12 2988.79 2364.35 3133.69 2709.58 2857.4 3154.66 2371.68 3358.46 1885.95 3562.25 1374.76 3447.6 1229.86 3102.37 1084.99 2757.14 1361.28 2312.06 1847 2108.27Z" stroke="#000000" stroke-width="78.7763" stroke-miterlimit="8" fill="none" fill-rule="evenodd"/><path d="M1601.31 2952.12C1392.78 2468.38 1451.21 1978.3 1731.76 1857.48 2012.35 1736.66 2408.84 2030.87 2617.37 2514.6 2825.87 2998.34 2767.47 3488.42 2486.88 3609.24 2206.33 3730.06 1809.84 3435.86 1601.31 2952.12Z" stroke="#000000" stroke-width="78.7763" stroke-miterlimit="8" fill="none" fill-rule="evenodd"/><path d="M2247.55 2518.46C2312.24 2516.95 2359.21 2532.62 2373.15 2565.81 2401.05 2632.2 2286.31 2743.58 2116.87 2814.57 1947.4 2885.57 1787.41 2889.3 1759.51 2822.91 1731.61 2756.53 1846.36 2645.15 2015.8 2574.15 2100.55 2538.66 2182.9 2519.97 2247.55 2518.46Z" stroke="#000000" stroke-width="78.7763" stroke-miterlimit="8" fill="none" fill-rule="evenodd"/><path d="M1733.33 1858.36 1964.33 2384.36" stroke="#000000" stroke-width="78.7763" stroke-miterlimit="8" fill="none" fill-rule="evenodd"/><path d="M2256.34 3085.36 2486.34 3611.36" stroke="#000000" stroke-width="78.7763" stroke-miterlimit="8" fill="none" fill-rule="evenodd"/><path d="M2627.47 2224.54C2813.25 2221.11 2948.42 2267.31 2988.99 2363.95 3070.18 2557.23 2742.11 2879.08 2256.27 3082.82 1770.44 3286.57 1310.81 3295.05 1229.66 3101.77 1148.51 2908.49 1476.58 2586.64 1962.38 2382.9 2205.31 2281.03 2441.68 2227.97 2627.47 2224.54Z" stroke="#000000" stroke-width="94.5314" stroke-miterlimit="8" fill="#FFC000" fill-rule="evenodd"/><path d="M2287.09 2488.7C2362.18 2485.73 2416.34 2502.35 2431.9 2539.26 2462.94 2613.09 2327.6 2740.14 2129.56 2823.04 1931.52 2905.94 1745.83 2913.29 1714.76 2839.46 1683.72 2765.64 1819.06 2638.59 2017.1 2555.69 2116.1 2514.23 2212.04 2491.67 2287.09 2488.7Z" stroke="#000000" stroke-width="3.4375" stroke-miterlimit="8" fill-rule="evenodd"/></g></svg>