<svg width="669" height="674" xmlns="http://www.w3.org/2000/svg" xmlns:xlink="http://www.w3.org/1999/xlink" xml:space="preserve" overflow="hidden"><g transform="translate(-3899 -806)"><path d="M4235.09 859.5C4275.08 859.5 4313.18 867.6 4347.83 882.247L4351.5 884.236 4351.5 1040.5 4139.5 1040.5 4139.5 875.972 4148.96 872.513C4176.17 864.056 4205.09 859.5 4235.09 859.5Z" stroke="#6B6E74" stroke-width="20.625" stroke-miterlimit="8" fill-rule="evenodd"/><path d="M4135.5 877.5 4135.5 1040.5 3967.5 1040.5 3969.04 1036.29C3998.25 967.019 4053.57 911.524 4122.63 882.224L4135.5 877.5Z" stroke="#6B6E74" stroke-width="20.625" stroke-miterlimit="8" fill-rule="evenodd"/><path d="M4355.5 886.5 4396.85 908.903C4443.15 940.123 4479.94 984.332 4501.96 1036.29L4503.5 1040.5 4355.5 1040.5 4355.5 886.5Z" stroke="#6B6E74" stroke-width="20.625" stroke-miterlimit="8" fill-rule="evenodd"/><path d="M3966.08 1044.5 4135.5 1044.5 4135.5 1253.5 3966.08 1253.5 3959.47 1235.31C3951.04 1208.04 3946.5 1179.05 3946.5 1149 3946.5 1118.95 3951.04 1089.96 3959.47 1062.69L3966.08 1044.5Z" stroke="#6B6E74" stroke-width="20.625" stroke-miterlimit="8" fill-rule="evenodd"/><path d="M4139.5 1044.5 4351.5 1044.5 4351.5 1253.5 4139.5 1253.5 4139.5 1044.5Z" stroke="#6B6E74" stroke-width="20.625" stroke-miterlimit="8" fill-rule="evenodd"/><path d="M4355.5 1044.5 4504.83 1044.5 4511.48 1062.69C4519.94 1089.96 4524.5 1118.95 4524.5 1149 4524.5 1179.06 4519.94 1208.04 4511.48 1235.31L4504.83 1253.5 4355.5 1253.5 4355.5 1044.5Z" stroke="#6B6E74" stroke-width="20.625" stroke-miterlimit="8" fill-rule="evenodd"/><path d="M4355.5 1257.5 4504.5 1257.5 4501.41 1265.94C4479.47 1317.82 4442.83 1361.96 4396.7 1393.13L4355.5 1415.5 4355.5 1257.5Z" stroke="#6B6E74" stroke-width="20.625" stroke-miterlimit="8" fill-rule="evenodd"/><path d="M3967.5 1257.5 4135.5 1257.5 4135.5 1420.5 4122.63 1415.78C4053.57 1386.48 3998.25 1330.98 3969.04 1261.71L3967.5 1257.5Z" stroke="#6B6E74" stroke-width="20.625" stroke-miterlimit="8" fill-rule="evenodd"/><path d="M4139.5 1257.5 4351.5 1257.5 4351.5 1413.76 4347.83 1415.75C4313.18 1430.4 4275.08 1438.5 4235.09 1438.5 4205.09 1438.5 4176.17 1433.94 4148.96 1425.49L4139.5 1422.03 4139.5 1257.5Z" stroke="#6B6E74" stroke-width="20.625" stroke-miterlimit="8" fill-rule="evenodd"/><path d="M4236.36 806C4376.09 806 4495.99 890.87 4547.2 1011.82L4563.55 1064.45 4436.66 1064.45 4435.02 1059.17C4402.28 981.864 4325.66 927.624 4236.36 927.624 4117.28 927.624 4020.75 1024.05 4020.75 1143 4020.75 1261.95 4117.28 1358.38 4236.36 1358.38 4303.33 1358.38 4363.18 1327.87 4402.73 1280L4429.1 1236.58 4282.29 1236.58 4282.29 1120.48 4568 1120.48 4568 1199.59 4566.86 1210.92 4559.23 1236.58 4559.23 1236.58 4550.31 1266.57C4500.97 1391.56 4379 1480 4236.36 1480 4050.04 1480 3899 1329.12 3899 1143 3899 956.88 4050.04 806 4236.36 806Z" fill="#6B6E74" fill-rule="evenodd"/></g></svg>