<svg width="669" height="674" xmlns="http://www.w3.org/2000/svg" xmlns:xlink="http://www.w3.org/1999/xlink" xml:space="preserve" overflow="hidden"><g transform="translate(-3899 -806)"><path d="M4234.59 859C4274.58 859 4312.68 867.1 4347.33 881.747L4351 883.736 4351 1040 4139 1040 4139 875.472 4148.46 872.014C4175.67 863.556 4204.59 859 4234.59 859Z" fill="#4E95D9" fill-rule="evenodd"/><path d="M4135 877 4135 1040 3967 1040 3968.54 1035.79C3997.75 966.519 4053.07 911.023 4122.13 881.723L4135 877Z" fill="#A6CAEC" fill-rule="evenodd"/><path d="M4355 886 4396.35 908.403C4442.65 939.622 4479.44 983.831 4501.46 1035.79L4503 1040 4355 1040 4355 886Z" fill="#215F9A" fill-rule="evenodd"/><path d="M3965.58 1044 4135 1044 4135 1253 3965.58 1253 3958.97 1234.81C3950.54 1207.54 3946 1178.55 3946 1148.5 3946 1118.45 3950.54 1089.46 3958.97 1062.19L3965.58 1044Z" fill="#4E95D9" fill-rule="evenodd"/><path d="M4139 1044 4351 1044 4351 1253 4139 1253 4139 1044Z" fill="#92D050" fill-rule="evenodd"/><path d="M4355 1044 4504.33 1044 4510.98 1062.19C4519.44 1089.46 4524 1118.45 4524 1148.5 4524 1178.55 4519.44 1207.54 4510.98 1234.81L4504.33 1253 4355 1253 4355 1044Z" fill="#B4E5A2" fill-rule="evenodd"/><path d="M4355 1257 4504 1257 4500.91 1265.44C4478.98 1317.32 4442.33 1361.46 4396.2 1392.63L4355 1415 4355 1257Z" fill="#00B050" fill-rule="evenodd"/><path d="M3967 1257 4135 1257 4135 1420 4122.13 1415.28C4053.07 1385.98 3997.75 1330.48 3968.54 1261.21L3967 1257Z" fill="#FBE3D6" fill-rule="evenodd"/><path d="M4139 1257 4351 1257 4351 1413.26 4347.33 1415.25C4312.68 1429.9 4274.58 1438 4234.59 1438 4204.59 1438 4175.67 1433.44 4148.46 1424.99L4139 1421.53 4139 1257Z" fill="#8ED973" fill-rule="evenodd"/><path d="M4236.36 806C4376.09 806 4495.99 890.87 4547.2 1011.82L4563.55 1064.45 4436.66 1064.45 4435.02 1059.17C4402.28 981.864 4325.66 927.624 4236.36 927.624 4117.28 927.624 4020.75 1024.05 4020.75 1143 4020.75 1261.95 4117.28 1358.38 4236.36 1358.38 4303.33 1358.38 4363.18 1327.87 4402.73 1280L4429.1 1236.58 4282.29 1236.58 4282.29 1120.48 4568 1120.48 4568 1199.59 4566.86 1210.92 4559.23 1236.58 4559.23 1236.58 4550.31 1266.57C4500.97 1391.56 4379 1480 4236.36 1480 4050.04 1480 3899 1329.12 3899 1143 3899 956.88 4050.04 806 4236.36 806Z" fill="#FFC000" fill-rule="evenodd"/></g></svg>