<svg width="708" height="714" xmlns="http://www.w3.org/2000/svg" xmlns:xlink="http://www.w3.org/1999/xlink" xml:space="preserve" overflow="hidden"><g transform="translate(-6226 -771)"><path d="M6582 828C6624.26 828 6664.51 836.592 6701.13 852.13L6705 854.24 6705 1020 6481 1020 6481 845.474 6490.99 841.805C6519.74 832.833 6550.31 828 6582 828Z" fill="#4E95D9" fill-rule="evenodd"/><path d="M6476 847 6476 1020 6298 1020 6299.63 1015.53C6330.58 942.011 6389.2 883.111 6462.37 852.013L6476 847Z" fill="#A6CAEC" fill-rule="evenodd"/><path d="M6709 857 6752.59 880.713C6801.39 913.756 6840.16 960.549 6863.37 1015.55L6865 1020 6709 1020 6709 857Z" fill="#215F9A" fill-rule="evenodd"/><path d="M6296.72 1024 6476 1024 6476 1245 6296.72 1245 6289.72 1225.76C6280.8 1196.93 6276 1166.28 6276 1134.5 6276 1102.72 6280.8 1072.07 6289.72 1043.24L6296.72 1024Z" fill="#4E95D9" fill-rule="evenodd"/><path d="M6481 1024 6705 1024 6705 1245 6481 1245 6481 1024Z" fill="#92D050" fill-rule="evenodd"/><path d="M6709 1024 6867.17 1024 6874.21 1043.24C6883.17 1072.07 6888 1102.72 6888 1134.5 6888 1166.28 6883.17 1196.93 6874.21 1225.76L6867.17 1245 6709 1245 6709 1024Z" fill="#B4E5A2" fill-rule="evenodd"/><path d="M6709 1249 6867 1249 6863.73 1257.92C6840.46 1312.75 6801.6 1359.41 6752.69 1392.36L6709 1416 6709 1249Z" fill="#00B050" fill-rule="evenodd"/><path d="M6298 1249 6476 1249 6476 1421 6462.37 1416.02C6389.2 1385.1 6330.58 1326.54 6299.63 1253.44L6298 1249Z" fill="#FBE3D6" fill-rule="evenodd"/><path d="M6481 1249 6705 1249 6705 1413.9 6701.13 1416C6664.51 1431.45 6624.26 1440 6582 1440 6550.31 1440 6519.74 1435.19 6490.99 1426.27L6481 1422.62 6481 1249Z" fill="#8ED973" fill-rule="evenodd"/><path d="M6583.02 771C6730.9 771 6857.79 860.907 6911.99 989.039L6929.29 1044.79 6795 1044.79 6793.26 1039.19C6758.62 957.301 6677.53 899.842 6583.02 899.842 6457.01 899.842 6354.85 1001.99 6354.85 1128 6354.85 1254.01 6457.01 1356.16 6583.02 1356.16 6653.91 1356.16 6717.24 1323.84 6759.09 1273.13L6787 1227.14 6631.64 1227.14 6631.64 1104.14 6934 1104.14 6934 1187.95 6932.79 1199.95 6924.71 1227.14 6924.71 1227.14 6915.28 1258.9C6863.07 1391.31 6733.99 1485 6583.02 1485 6385.84 1485 6226 1325.17 6226 1128 6226 930.835 6385.84 771 6583.02 771Z" fill="#002060" fill-rule="evenodd"/></g></svg>