<svg width="513" height="687" xmlns="http://www.w3.org/2000/svg" xmlns:xlink="http://www.w3.org/1999/xlink" xml:space="preserve" overflow="hidden"><defs><clipPath id="clip0"><rect x="2301" y="779" width="513" height="687"/></clipPath></defs><g clip-path="url(#clip0)" transform="translate(-2301 -779)"><path d="M2557.5 779 2814 959.509 2814 1285.49 2557.5 1466 2301 1285.49 2301 959.509Z" fill="#441E51" fill-rule="evenodd"/><path d="M2575.69 1168.13 2331.5 993.5" stroke="#FFFFFF" stroke-width="6.875" stroke-miterlimit="8" fill="#FFFFFF" fill-rule="evenodd"/><path d="M0 0 49.4646 36.5053" stroke="#FFFFFF" stroke-width="6.875" stroke-miterlimit="8" fill="#FFFFFF" fill-rule="evenodd" transform="matrix(-1 0 0 1 2546.96 1049.5)"/><path d="M0 0 218.865 156.61" stroke="#FFFFFF" stroke-width="6.875" stroke-miterlimit="8" fill="#FFFFFF" fill-rule="evenodd" transform="matrix(-1 0 0 1 2578.36 829.5)"/><path d="M2541.38 942.623 2495.5 913.5" stroke="#FFFFFF" stroke-width="6.875" stroke-miterlimit="8" fill="#FFFFFF" fill-rule="evenodd"/><path d="M2581.5 1154C2581.5 1165.32 2572.32 1174.5 2561 1174.5 2549.68 1174.5 2540.5 1165.32 2540.5 1154 2540.5 1142.68 2549.68 1133.5 2561 1133.5 2572.32 1133.5 2581.5 1142.68 2581.5 1154Z" stroke="#FFFFFF" stroke-width="6.875" stroke-miterlimit="8" fill="#FFFFFF" fill-rule="evenodd"/><path d="M2581.5 1035C2581.5 1046.32 2572.32 1055.5 2561 1055.5 2549.68 1055.5 2540.5 1046.32 2540.5 1035 2540.5 1023.68 2549.68 1014.5 2561 1014.5 2572.32 1014.5 2581.5 1023.68 2581.5 1035Z" stroke="#FFFFFF" stroke-width="6.875" stroke-miterlimit="8" fill="#FFFFFF" fill-rule="evenodd"/><path d="M2497.22 1101.31C2493.08 1111.83 2481.2 1117.01 2470.67 1112.88 2460.15 1108.74 2454.97 1096.85 2459.11 1086.33 2463.24 1075.8 2475.13 1070.62 2485.65 1074.76 2496.18 1078.9 2501.36 1090.78 2497.22 1101.31Z" stroke="#FFFFFF" stroke-width="6.875" stroke-miterlimit="8" fill="#FFFFFF" fill-rule="evenodd"/><path d="M2494.93 896.986C2498.99 907.543 2493.72 919.389 2483.16 923.443 2472.6 927.497 2460.76 922.225 2456.7 911.668 2452.65 901.11 2457.92 889.265 2468.48 885.21 2479.04 881.156 2490.88 886.428 2494.93 896.986Z" stroke="#FFFFFF" stroke-width="6.875" stroke-miterlimit="8" fill="#FFFFFF" fill-rule="evenodd"/><path d="M2366.41 1014.08C2360.65 1023.81 2348.09 1027.03 2338.36 1021.27 2328.63 1015.5 2325.41 1002.94 2331.17 993.212 2336.93 983.481 2349.49 980.263 2359.22 986.025 2368.95 991.788 2372.17 1004.35 2366.41 1014.08Z" stroke="#FFFFFF" stroke-width="6.875" stroke-miterlimit="8" fill="#FFFFFF" fill-rule="evenodd"/><path d="M2581.5 942C2581.5 953.322 2572.32 962.5 2561 962.5 2549.68 962.5 2540.5 953.322 2540.5 942 2540.5 930.678 2549.68 921.5 2561 921.5 2572.32 921.5 2581.5 930.678 2581.5 942Z" stroke="#FFFFFF" stroke-width="6.875" stroke-miterlimit="8" fill="#FFFFFF" fill-rule="evenodd"/><path d="M2578.09 829.416C2584.22 838.919 2581.49 851.593 2571.98 857.724 2562.48 863.856 2549.81 861.123 2543.67 851.62 2537.54 842.117 2540.28 829.443 2549.78 823.311 2559.28 817.18 2571.96 819.913 2578.09 829.416Z" stroke="#FFFFFF" stroke-width="6.875" stroke-miterlimit="8" fill="#FFFFFF" fill-rule="evenodd"/><path d="M2753.5 1168 2814 1210.58 2814 1286.42 2753.5 1329 2693 1286.42 2693 1210.58Z" fill="#FFFFFF" fill-rule="evenodd" fill-opacity="0.501961"/><path d="M2690 1041 2750 1083.22 2750 1159.78 2690 1202 2630 1159.78 2630 1083.22Z" fill="#FFFFFF" fill-rule="evenodd" fill-opacity="0.501961"/><path d="M2753 917 2813 959.224 2813 1035.78 2753 1078 2693 1035.78 2693 959.224Z" fill="#FFFFFF" fill-rule="evenodd" fill-opacity="0.501961"/><path d="M2813 1044 2813 1199 2758 1159.9 2758 1083.1Z" fill="#FFFFFF" fill-rule="evenodd" fill-opacity="0.501961"/></g></svg>