<svg width="614" height="823" xmlns="http://www.w3.org/2000/svg" xmlns:xlink="http://www.w3.org/1999/xlink" xml:space="preserve" overflow="hidden"><defs><clipPath id="clip0"><rect x="-164" y="735" width="614" height="823"/></clipPath></defs><g clip-path="url(#clip0)" transform="translate(164 -735)"><path d="M143 735 450 951.048 450 1341.95 143 1558-164 1341.95-164 951.048Z" fill="#6B6E74" fill-rule="evenodd"/><path d="M164.897 1201.61-127.5 992.5" stroke="#000000" stroke-width="6.875" stroke-miterlimit="8" fill-rule="evenodd"/><path d="M0 0 59.2293 43.712" stroke="#000000" stroke-width="6.875" stroke-miterlimit="8" fill-rule="evenodd" transform="matrix(-1 0 0 1 130.729 1059.5)"/><path d="M0 0 262.071 187.526" stroke="#000000" stroke-width="6.875" stroke-miterlimit="8" fill-rule="evenodd" transform="matrix(-1 0 0 1 168.571 796.5)"/><path d="M123.434 930.373 68.4999 895.5" stroke="#000000" stroke-width="6.875" stroke-miterlimit="8" fill-rule="evenodd"/><path d="M172.5 1184C172.5 1197.53 161.531 1208.5 148 1208.5 134.469 1208.5 123.5 1197.53 123.5 1184 123.5 1170.47 134.469 1159.5 148 1159.5 161.531 1159.5 172.5 1170.47 172.5 1184Z" stroke="#000000" stroke-width="6.875" stroke-miterlimit="8" fill-rule="evenodd"/><path d="M172.5 1042C172.5 1055.53 161.531 1066.5 148 1066.5 134.469 1066.5 123.5 1055.53 123.5 1042 123.5 1028.47 134.469 1017.5 148 1017.5 161.531 1017.5 172.5 1028.47 172.5 1042Z" stroke="#000000" stroke-width="6.875" stroke-miterlimit="8" fill-rule="evenodd"/><path d="M70.9764 1121.33C66.0223 1133.94 51.7892 1140.14 39.1859 1135.18 26.5827 1130.23 20.3818 1116 25.336 1103.39 30.2902 1090.79 44.5232 1084.59 57.1265 1089.54 69.7298 1094.5 75.9306 1108.73 70.9764 1121.33Z" stroke="#000000" stroke-width="6.875" stroke-miterlimit="8" fill-rule="evenodd"/><path d="M68.2387 876.676C73.0933 889.318 66.7804 903.502 54.1385 908.356 41.4965 913.211 27.3128 906.898 22.4583 894.256 17.6037 881.615 23.9166 867.431 36.5585 862.576 49.2004 857.722 63.3841 864.035 68.2387 876.676Z" stroke="#000000" stroke-width="6.875" stroke-miterlimit="8" fill-rule="evenodd"/><path d="M-85.6585 1016.88C-92.5581 1028.54-107.597 1032.39-119.25 1025.49-130.902 1018.59-134.755 1003.55-127.856 991.899-120.956 980.247-105.917 976.394-94.2644 983.293-82.6119 990.193-78.7589 1005.23-85.6585 1016.88Z" stroke="#000000" stroke-width="6.875" stroke-miterlimit="8" fill-rule="evenodd"/><path d="M172.5 931C172.5 944.531 161.531 955.5 148 955.5 134.469 955.5 123.5 944.531 123.5 931 123.5 917.469 134.469 906.5 148 906.5 161.531 906.5 172.5 917.469 172.5 931Z" stroke="#000000" stroke-width="6.875" stroke-miterlimit="8" fill-rule="evenodd"/><path d="M167.806 795.767C175.148 807.146 171.875 822.322 160.496 829.664 149.117 837.006 133.941 833.734 126.599 822.355 119.257 810.976 122.53 795.8 133.909 788.458 145.288 781.116 160.465 784.388 167.806 795.767Z" stroke="#000000" stroke-width="6.875" stroke-miterlimit="8" fill-rule="evenodd"/><path d="M378 1201 450 1251.67 450 1343.33 378 1394 306 1343.33 306 1251.67Z" fill="#FFFFFF" fill-rule="evenodd" fill-opacity="0.501961"/><path d="M302 1049 374 1099.67 374 1191.33 302 1242 230 1191.33 230 1099.67Z" fill="#FFFFFF" fill-rule="evenodd" fill-opacity="0.501961"/><path d="M378 900 450 950.669 450 1042.33 378 1093 306 1042.33 306 950.669Z" fill="#FFFFFF" fill-rule="evenodd" fill-opacity="0.501961"/><path d="M450 1053 450 1239 383 1192.08 383 1099.92Z" fill="#FFFFFF" fill-rule="evenodd" fill-opacity="0.501961"/></g></svg>