<svg width="2256" height="921" xmlns="http://www.w3.org/2000/svg" xmlns:xlink="http://www.w3.org/1999/xlink" xml:space="preserve" overflow="hidden"><g transform="translate(-1192 777)"><path d="M3113.73-578.3C3312.68-562.914 3461.48-389.163 3446.09-190.217 3430.71 8.72816 3256.96 157.532 3058.01 142.146 2958.54 134.452 2884.14 47.5771 2891.83-51.8957 2899.52-151.368 2986.4-225.771 3085.87-218.077 3185.34-210.384 3272.22-284.786 3279.91-384.259 3287.6-483.732 3213.2-570.607 3113.73-578.3" fill="#FFC000" fill-rule="evenodd"/><path d="M1260.39-356.361C1193.41-397.041 1172.1-484.311 1212.78-551.284 1253.46-618.256 1340.73-639.57 1407.7-598.89 1441.19-578.55 1451.85-534.916 1431.51-501.429 1411.17-467.943 1367.53-457.286 1334.04-477.626 1300.56-497.966 1256.92-487.309 1236.58-453.822 1216.24-420.336 1226.9-376.701 1260.39-356.361" fill="#D2A000" fill-rule="evenodd"/><path d="M54.3299 122.236C24.3244 122.236 0 94.8726 0 61.118 0 27.3635 24.3244 0 54.3299 0 69.3327 0 81.4949 13.6817 81.4949 30.559 81.4949 47.4363 69.3327 61.118 54.3299 61.118 39.3272 61.118 27.165 74.7998 27.165 91.677 27.165 108.554 39.3272 122.236 54.3299 122.236" fill="#D2A000" fill-rule="evenodd" transform="matrix(-0.930478 0.366347 0.366347 0.930478 1332.48 -496.041)"/><path d="M1609.78-777C1648.54-777 1678.56-767.655 1699.83-748.964 1721.1-730.274 1731.73-703.844 1731.73-669.673L1731.73-669.389C1731.73-650.699 1728.47-632.151 1721.95-613.743 1715.42-595.336 1706.3-578.676 1694.58-563.761L1593.05-435.761 1734-435.761 1734-361 1490.1-361 1490.1-430.946 1631.62-616.717C1638.05-625.024 1643.01-633.566 1646.51-642.345 1650.01-651.124 1651.76-659.289 1651.76-666.841L1651.76-667.407C1651.76-678.546 1648.16-687.136 1640.98-693.177 1633.79-699.218 1623.59-702.239 1610.35-702.239 1597.68-702.239 1587.33-698.039 1579.3-689.637 1571.26-681.236 1566.39-669.295 1564.69-653.814L1564.69-653.531 1485-653.531 1485-653.814C1487.65-692.894 1500.17-723.195 1522.58-744.717 1544.98-766.239 1574.05-777 1609.78-777Z" fill="#D2A000" fill-rule="evenodd"/><path d="M1952.89-777C1975.12-777 1997.71-773.274 2020.69-765.821 2043.66-758.368 2065.04-747.755 2084.81-733.981L2052.04-668.321C2036.22-679.453 2019.7-687.991 2002.47-693.934 1985.24-699.877 1968.71-702.849 1952.89-702.849 1929.17-702.849 1910.81-698.934 1897.81-691.104 1884.82-683.274 1878.32-672.283 1878.32-658.132L1878.32-657.849C1878.32-644.642 1882.18-634.642 1889.9-627.849 1897.62-621.056 1907.7-616.009 1920.13-612.707 1932.56-609.406 1945.93-606.339 1960.24-603.509 1976.06-600.491 1991.78-596.764 2007.41-592.33 2023.04-587.896 2037.35-581.529 2050.35-573.227 2063.34-564.925 2073.7-553.51 2081.42-538.981 2089.14-524.453 2093-505.585 2093-482.377L2093-481.811C2093-442.188 2079.35-411.481 2052.04-389.688 2024.74-367.896 1986.23-357 1936.51-357 1916.93-357 1897.77-358.981 1879.03-362.943 1860.29-366.906 1842.73-372.707 1826.35-380.349 1809.96-387.991 1795.18-397.188 1782-407.943L1817.87-471.905C1833.69-458.887 1851.96-448.84 1872.67-441.764 1893.39-434.689 1914.67-431.151 1936.51-431.151 1961.75-431.151 1981.33-435.443 1995.27-444.028 2009.2-452.613 2016.17-464.736 2016.17-480.396L2016.17-480.679C2016.17-492.566 2012.68-501.669 2005.72-507.991 1998.75-514.311 1989.57-518.981 1978.18-522 1966.78-525.019 1954.4-527.566 1941.03-529.641 1925.02-532.095 1908.83-535.16 1892.45-538.84 1876.06-542.519 1861-548.368 1847.25-556.387 1833.5-564.406 1822.44-575.868 1814.06-590.774 1805.68-605.68 1801.49-625.585 1801.49-650.491L1801.49-650.773C1801.49-690.962 1814.67-722.047 1841.04-744.028 1867.4-766.01 1904.69-777 1952.89-777Z" fill="#D2A000" fill-rule="evenodd"/><path d="M2618.21-777C2644.31-777 2667.52-771.434 2687.85-760.302 2708.18-749.17 2725.01-733.038 2738.34-711.906 2751.68-690.773 2760.89-665.113 2766-634.924L2685.44-634.924C2682.41-648.698 2677.73-660.349 2671.4-669.877 2665.06-679.406 2657.4-686.717 2648.42-691.812 2639.44-696.906 2629.37-699.453 2618.21-699.453 2596.46-699.453 2579.58-692.802 2567.58-679.5 2555.57-666.198 2549.56-647.471 2549.56-623.321L2549.56-510.396C2549.56-486.245 2555.57-467.566 2567.58-454.358 2579.58-441.151 2596.46-434.547 2618.21-434.547 2635.23-434.547 2649.6-440.161 2661.33-451.387 2673.05-462.613 2681.09-478.509 2685.44-499.076L2766-499.076C2760.71-469.075 2751.39-443.462 2738.06-422.236 2724.73-401.009 2707.94-384.83 2687.71-373.698 2667.47-362.566 2644.31-357 2618.21-357 2586.63-357 2559.73-362.99 2537.51-374.971 2515.29-386.952 2498.31-404.406 2486.59-427.33 2474.86-450.255 2469-477.943 2469-510.396L2469-623.321C2469-655.962 2474.86-683.698 2486.59-706.529 2498.31-729.358 2515.29-746.811 2537.51-758.887 2559.73-770.962 2586.63-777 2618.21-777Z" fill="#D2A000" fill-rule="evenodd"/><path d="M2158-773 2186.27-773 2235.47-773 2428-773 2428-698.194 2235.47-698.194 2235.47-599.303 2396.9-599.303 2396.9-524.496 2235.47-524.496 2235.47-361 2158-361 2158-773Z" fill="#D2A000" fill-rule="evenodd"/><path d="M2940.37-773 2989.62-773 3147-361 3063.5-361 3040.39-427.022 2889.61-427.022 2866.5-361 2783-361 2940.37-773ZM2965-642.373 2915.8-501.828 3014.2-501.828 2965-642.373Z" fill="#D2A000" fill-rule="evenodd"/><path d="M2276.86-175.5C2288.65-175.5 2298.04-171.996 2305.03-164.986 2312.01-157.977 2315.5-148.873 2315.5-137.675 2315.5-130.101 2314.16-122.629 2311.47-115.257 2308.78-107.886 2304.3-99.6277 2298.04-90.4835 2291.78-81.3393 2283-69.9998 2271.68-56.4647 2255.71-37.129 2244.11-23.3521 2236.89-15.1346L2309.36-15.1346 2307.68-4.49997 2214.5-4.49997C2225.82-17.2292 2239.18-32.9798 2254.59-51.7515 2268.39-68.5898 2278.8-82.0441 2285.83-92.1151 2292.85-102.186 2297.54-110.444 2299.91-116.889 2302.28-123.334 2303.46-129.86 2303.46-136.466 2303.46-145.006 2300.99-151.875 2296.06-157.071 2291.12-162.267 2284.2-164.866 2275.29-164.866 2264.14-164.866 2251.58-159.991 2237.61-150.243L2239.66-162.932C2246.16-167.202 2252.42-170.364 2258.44-172.419 2264.46-174.473 2270.6-175.5 2276.86-175.5Z" stroke="#D2A000" stroke-width="6.875" stroke-miterlimit="8" fill="#D2A000" fill-rule="evenodd"/><path d="M2399.35-175.5C2409.33-175.5 2418.72-173.126 2427.5-168.377L2425.58-156.788C2421.03-159.524 2416.66-161.516 2412.47-162.764 2408.28-164.011 2403.9-164.635 2399.35-164.635 2389.37-164.635 2381.27-161.536 2375.04-155.339 2368.81-149.142 2365.7-141.536 2365.7-132.522 2365.7-125.761 2367.37-119.785 2370.73-114.594 2374.08-109.403 2380.43-103.347 2389.77-96.4248 2401.35-87.6519 2409.55-79.5231 2414.38-72.038 2419.22-64.5531 2421.63-55.9413 2421.63-46.2029 2421.63-37.9934 2419.71-30.5486 2415.88-23.8685 2412.05-17.1883 2406.7-11.9568 2399.83-8.17418 2392.96-4.3912 2385.1-2.49991 2376.24-2.49991 2370.41-2.49991 2364.38-3.48593 2358.15-5.45763 2351.92-7.4297 2346.37-9.98509 2341.5-13.1238L2343.66-25.1966C2348.69-21.4137 2354.04-18.4963 2359.71-16.4439 2365.38-14.3914 2370.81-13.3654 2376-13.3654 2385.98-13.3654 2394.08-16.3635 2400.31-22.3593 2406.54-28.3555 2409.65-36.2229 2409.65-45.9613 2409.65-53.3657 2407.66-60.0863 2403.66-66.1225 2399.67-72.1587 2392.68-78.9596 2382.7-86.5252 2372.24-94.4128 2364.8-101.777 2360.37-108.618 2355.93-115.459 2353.72-123.347 2353.72-132.28 2353.72-140.168 2355.59-147.411 2359.35-154.011 2363.1-160.611 2368.45-165.842 2375.4-169.705 2382.34-173.568 2390.33-175.5 2399.35-175.5Z" stroke="#D2A000" stroke-width="6.875" stroke-miterlimit="8" fill="#D2A000" fill-rule="evenodd"/><path d="M2651.37-175.5C2657.86-175.5 2663.9-175.017 2669.5-174.052L2667.55-163.428C2660.09-164.232 2654.78-164.635 2651.62-164.635 2632.88-164.635 2616.16-160.349 2601.44-151.778 2586.72-143.206 2575.28-131.918 2567.13-117.914 2558.98-103.91 2554.91-88.98 2554.91-73.1246 2554.91-62.0983 2557.12-52.0581 2561.54-43.0036 2565.96-33.9491 2572.16-26.7458 2580.15-21.3935 2588.14-16.0415 2597.28-13.3654 2607.58-13.3654 2623.31-13.3654 2640.14-19.12 2658.07-30.629L2656.36-17.2287C2648.58-12.6411 2640.32-9.03943 2631.61-6.42348 2622.89-3.80788 2614.68-2.49991 2606.97-2.49991 2593.75-2.49991 2582.28-5.69919 2572.55-12.0977 2562.81-18.4963 2555.37-27.0678 2550.22-37.8124 2545.07-48.5571 2542.5-60.1667 2542.5-72.6418 2542.5-91.7968 2547.37-109.202 2557.1-124.856 2566.83-140.51 2579.99-152.864 2596.57-161.919 2613.16-170.973 2631.42-175.5 2651.37-175.5Z" stroke="#D2A000" stroke-width="6.875" stroke-miterlimit="8" fill="#D2A000" fill-rule="evenodd"/><path d="M2743.59-174.5 2754.69-174.5 2790.5-4.49997 2779.41-4.49997 2766.5-64.018 2705.49-64.018 2679.32-4.49997 2667.5-4.49997 2743.59-174.5ZM2746.73-157.753 2709.71-73.536 2764.81-73.536 2746.73-157.753Z" stroke="#D2A000" stroke-width="6.875" stroke-miterlimit="8" fill="#D2A000" fill-rule="evenodd"/><path d="M1902.78-173.5 1913.5-173.5 1889.98-4.49995 1879.5-4.49995 1902.78-173.5Z" stroke="#D2A000" stroke-width="6.875" stroke-miterlimit="8" fill="#D2A000" fill-rule="evenodd"/><path d="M2126.85-173.5 2137.5-173.5 2114.27-4.77017C2106.77-3.47812 2101.51-2.60999 2098.49-2.16615 2095.46-1.72195 2091.53-1.49986 2086.69-1.49986 2069.52-1.49986 2056.19-6.06224 2046.71-15.187 2037.24-24.3121 2032.5-36.7076 2032.5-52.3733 2032.5-65.1319 2035.42-76.4773 2041.27-86.4098 2047.12-96.3422 2055.2-104.115 2065.52-109.727 2075.85-115.339 2087.38-118.145 2100.12-118.145 2107.54-118.145 2113.91-117.822 2119.23-117.176L2126.85-173.5ZM2101.09-109.182C2089.07-109.182 2078.71-106.618 2070-101.49 2061.29-96.3625 2054.72-89.4985 2050.28-80.8986 2045.85-72.2987 2043.63-62.9515 2043.63-52.8576 2043.63-39.5337 2047.5-29.1773 2055.24-21.7884 2062.98-14.3999 2073.71-10.7057 2087.42-10.7057 2093.87-10.7057 2099.68-11.4725 2104.84-13.0069L2117.9-107.97C2112.5-108.778 2106.9-109.182 2101.09-109.182Z" stroke="#D2A000" stroke-width="6.875" stroke-miterlimit="8" fill="#D2A000" fill-rule="evenodd"/><path d="M2468.7-173.5 2543.5-173.5 2541.93-162.854 2478.85-162.854 2469.67-95.9558 2528.15-95.9558 2526.94-85.3101 2468.22-85.3101 2457.34-4.49995 2445.5-4.49995 2468.7-173.5Z" stroke="#D2A000" stroke-width="6.875" stroke-miterlimit="8" fill="#D2A000" fill-rule="evenodd"/><path d="M1857.15-163.5 1868.5-163.5 1865.85-144.5 1854.5-144.5 1857.15-163.5Z" stroke="#D2A000" stroke-width="6.875" stroke-miterlimit="8" fill="#D2A000" fill-rule="evenodd"/><path d="M1375.01-118.5C1386.59-118.5 1395.89-114.277 1402.94-105.83 1409.98-97.3835 1413.5-85.9663 1413.5-71.5788 1413.5-67.78 1413.34-65.3146 1413.01-64.1828L1335.91-64.1828C1335.59-60.1414 1335.43-56.9081 1335.43-54.4833 1335.43-40.7424 1338.67-30.0125 1345.14-22.2932 1351.62-14.5738 1360.24-10.7145 1371-10.7145 1376.75-10.7145 1382.42-11.7852 1388-13.9272 1393.59-16.0692 1399.5-19.4842 1405.73-24.1723L1404.52-13.018C1393.91-5.33926 1382.5-1.49987 1370.28-1.49987 1356.19-1.49987 1345.04-6.30923 1336.82-15.928 1328.61-25.5464 1324.5-38.4791 1324.5-54.7259 1324.5-66.1228 1326.69-76.7115 1331.06-86.4917 1335.43-96.2719 1341.48-104.052 1349.21-109.831 1356.94-115.61 1365.54-118.5 1375.01-118.5ZM1374.4-109.285C1365.98-109.285 1358.38-105.971 1351.58-99.3437 1344.78-92.7157 1340.12-83.703 1337.61-72.3062L1402.82-72.3062C1402.82-83.9456 1400.33-93.0187 1395.35-99.5255 1390.37-106.032 1383.39-109.285 1374.4-109.285Z" stroke="#D2A000" stroke-width="6.875" stroke-miterlimit="8" fill="#D2A000" fill-rule="evenodd"/><path d="M1497.73-118.5C1502.98-118.5 1509.24-117.692 1516.5-116.075L1515.05-106.376C1507.62-107.992 1501.57-108.801 1496.88-108.801 1485.99-108.801 1476.4-106.113 1468.13-100.738 1459.85-95.3628 1453.5-88.2499 1449.06-79.3991 1444.62-70.5483 1442.4-61.1519 1442.4-51.2098 1442.4-39.4897 1445.53-29.8912 1451.78-22.4145 1458.04-14.9377 1466.9-11.1993 1478.36-11.1993 1488.77-11.1993 1498.7-14.19 1508.15-20.1714L1506.57-8.77457C1496.97-3.92465 1486.79-1.49987 1476.06-1.49987 1466.69-1.49987 1458.66-3.7429 1451.96-8.22894 1445.26-12.715 1440.18-18.7568 1436.71-26.3549 1433.24-33.9529 1431.5-42.4803 1431.5-51.9372 1431.5-63.5767 1434.14-74.4685 1439.43-84.6126 1444.72-94.7567 1452.37-102.941 1462.38-109.164 1472.39-115.388 1484.17-118.5 1497.73-118.5Z" stroke="#D2A000" stroke-width="6.875" stroke-miterlimit="8" fill="#D2A000" fill-rule="evenodd"/><path d="M1576.51-118.5C1587.94-118.5 1597.12-114.156 1604.07-105.466 1611.02-96.7774 1614.5-85.3197 1614.5-71.0936 1614.5-57.9994 1612.42-46.1984 1608.27-35.6905 1604.11-25.1828 1598.1-16.8574 1590.23-10.7145 1582.36-4.5713 1573.2-1.49987 1562.73-1.49987 1550.82-1.49987 1541.48-5.98591 1534.69-14.958 1527.9-23.9301 1524.5-35.0036 1524.5-48.1786 1524.5-61.758 1526.62-73.9025 1530.85-84.6126 1535.09-95.3222 1541.14-103.648 1549.01-109.588 1556.88-115.53 1566.04-118.5 1576.51-118.5ZM1575.55-109.043C1566.84-109.043 1559.47-106.032 1553.44-100.01 1547.41-93.9887 1542.88-86.2491 1539.84-76.7922 1536.8-67.3353 1535.29-57.5547 1535.29-47.4512 1535.29-36.701 1537.86-27.9309 1543.02-21.1414 1548.17-14.3515 1554.82-10.9568 1562.97-10.9568 1571.36-10.9568 1578.65-13.6444 1584.84-19.0197 1591.03-24.3946 1595.72-31.6896 1598.92-40.9039 1602.12-50.1186 1603.71-60.3434 1603.71-71.5788 1603.71-83.1375 1601.14-92.2711 1595.98-98.9798 1590.83-105.689 1584.02-109.043 1575.55-109.043Z" stroke="#D2A000" stroke-width="6.875" stroke-miterlimit="8" fill="#D2A000" fill-rule="evenodd"/><path d="M1809.95-118.5C1815.14-118.5 1821.32-117.692 1828.5-116.075L1827.06-106.376C1819.72-107.992 1813.74-108.801 1809.12-108.801 1798.35-108.801 1788.87-106.113 1780.7-100.738 1772.52-95.3628 1766.24-88.2499 1761.85-79.3991 1757.46-70.5483 1755.27-61.1519 1755.27-51.2098 1755.27-39.4897 1758.36-29.8912 1764.54-22.4145 1770.73-14.9377 1779.48-11.1993 1790.81-11.1993 1801.1-11.1993 1810.91-14.19 1820.24-20.1714L1818.69-8.77457C1809.19-3.92465 1799.14-1.49987 1788.53-1.49987 1779.28-1.49987 1771.34-3.7429 1764.72-8.22894 1758.1-12.715 1753.08-18.7568 1749.65-26.3549 1746.21-33.9529 1744.5-42.4803 1744.5-51.9372 1744.5-63.5767 1747.11-74.4685 1752.34-84.6126 1757.56-94.7567 1765.12-102.941 1775.01-109.164 1784.9-115.388 1796.55-118.5 1809.95-118.5Z" stroke="#D2A000" stroke-width="6.875" stroke-miterlimit="8" fill="#D2A000" fill-rule="evenodd"/><path d="M1977.01-118.5C1988.59-118.5 1997.89-114.277 2004.94-105.83 2011.98-97.3835 2015.5-85.9663 2015.5-71.5788 2015.5-67.78 2015.34-65.3146 2015.01-64.1828L1937.91-64.1828C1937.59-60.1414 1937.43-56.9081 1937.43-54.4833 1937.43-40.7424 1940.67-30.0125 1947.14-22.2932 1953.62-14.5738 1962.24-10.7145 1973-10.7145 1978.75-10.7145 1984.42-11.7852 1990-13.9272 1995.59-16.0692 2001.5-19.4842 2007.73-24.1723L2006.51-13.018C1995.91-5.33926 1984.5-1.49987 1972.27-1.49987 1958.19-1.49987 1947.04-6.30923 1938.82-15.928 1930.61-25.5464 1926.5-38.4791 1926.5-54.7259 1926.5-66.1228 1928.69-76.7115 1933.06-86.4917 1937.43-96.2719 1943.48-104.052 1951.21-109.831 1958.94-115.61 1967.54-118.5 1977.01-118.5ZM1976.4-109.285C1967.98-109.285 1960.38-105.971 1953.58-99.3437 1946.78-92.7157 1942.12-83.703 1939.61-72.3062L2004.82-72.3062C2004.82-83.9456 2002.33-93.0187 1997.35-99.5255 1992.37-106.032 1985.39-109.285 1976.4-109.285Z" stroke="#D2A000" stroke-width="6.875" stroke-miterlimit="8" fill="#D2A000" fill-rule="evenodd"/><path d="M1314.71-117.5C1318.3-117.5 1321.9-116.575 1325.5-114.723L1321.9-104.099C1318.78-105.789 1315.67-106.635 1312.55-106.635 1306.31-106.635 1300.23-103.838 1294.32-98.2441 1288.4-92.6505 1281.84-84.8232 1274.65-74.7627L1265.17-4.49997 1254.5-4.49997 1269.73-115.568 1280.29-115.568 1276.45-88.0426C1284.6-98.9081 1291.5-106.534 1297.14-110.92 1302.77-115.307 1308.63-117.5 1314.71-117.5Z" stroke="#D2A000" stroke-width="6.875" stroke-miterlimit="8" fill="#D2A000" fill-rule="evenodd"/><path d="M1699.15-117.5C1707.49-117.5 1713.97-114.864 1718.58-109.592 1723.19-104.321 1725.5-96.8961 1725.5-87.3184 1725.5-83.3746 1725.1-78.9077 1724.29-73.9176L1714.33-4.49997 1703.65-4.49997 1713.6-73.9176C1714.41-79.2296 1714.82-83.6161 1714.82-87.0768 1714.82-94.1597 1713.2-99.5117 1709.96-103.134 1706.72-106.755 1702.23-108.566 1696.48-108.566 1683.21-108.566 1669.04-99.9948 1653.99-82.8514L1642.94-4.49997 1632.5-4.49997 1647.68-115.568 1658.36-115.568 1655.45-94.1997C1669.85-109.733 1684.42-117.5 1699.15-117.5Z" stroke="#D2A000" stroke-width="6.875" stroke-miterlimit="8" fill="#D2A000" fill-rule="evenodd"/><path d="M1851-115.5 1861.5-115.5 1846.24-4.49997 1835.5-4.49997 1851-115.5Z" stroke="#D2A000" stroke-width="6.875" stroke-miterlimit="8" fill="#D2A000" fill-rule="evenodd"/></g></svg>