<svg width="2267" height="930" xmlns="http://www.w3.org/2000/svg" xmlns:xlink="http://www.w3.org/1999/xlink" xml:space="preserve" overflow="hidden"><g transform="translate(-3683 1185)"><path d="M5610.36-982.862C5809.31-967.475 5958.11-793.724 5942.73-594.779 5927.34-395.833 5753.59-247.029 5554.64-262.416 5455.17-270.109 5380.77-356.984 5388.46-456.457 5396.15-555.93 5483.03-630.332 5582.5-622.639 5681.97-614.945 5768.85-689.348 5776.54-788.82 5784.24-888.293 5709.83-975.168 5610.36-982.862" stroke="#6B6E74" stroke-width="10.8282" stroke-miterlimit="8" fill="#6B6E74" fill-rule="evenodd"/><path d="M3757.02-760.923C3690.05-801.603 3668.73-888.872 3709.41-955.845 3750.09-1022.82 3837.36-1044.13 3904.33-1003.45 3937.82-983.112 3948.48-939.477 3928.14-905.991 3907.8-872.504 3864.16-861.847 3830.68-882.187 3797.19-902.527 3753.56-891.87 3733.22-858.384 3712.88-824.898 3723.53-781.263 3757.02-760.923" stroke="#6B6E74" stroke-width="10.8282" stroke-miterlimit="8" fill="#6B6E74" fill-rule="evenodd"/><path d="M54.3299 122.236C24.3244 122.236 0 94.8726 0 61.118 0 27.3635 24.3244 0 54.3299 0 69.3327 0 81.4949 13.6817 81.4949 30.559 81.4949 47.4363 69.3327 61.118 54.3299 61.118 39.3272 61.118 27.165 74.7998 27.165 91.677 27.165 108.554 39.3272 122.236 54.3299 122.236" stroke="#6B6E74" stroke-width="10.8282" stroke-miterlimit="8" fill="#6B6E74" fill-rule="evenodd" transform="matrix(-0.930478 0.366347 0.366347 0.930478 3829.11 -900.602)"/><path d="M4106.78-1181.5C4145.39-1181.5 4175.28-1172.13 4196.46-1153.4 4217.65-1134.66 4228.24-1108.17 4228.24-1073.91L4228.24-1073.63C4228.24-1054.9 4224.99-1036.3 4218.5-1017.85 4212-999.4 4202.91-982.699 4191.24-967.749L4090.12-839.441 4230.5-839.441 4230.5-764.5 3987.58-764.5 3987.58-834.615 4128.53-1020.83C4134.93-1029.16 4139.88-1037.72 4143.36-1046.52 4146.84-1055.32 4148.59-1063.51 4148.59-1071.08L4148.59-1071.64C4148.59-1082.81 4145.01-1091.42 4137.85-1097.48 4130.7-1103.53 4120.53-1106.56 4107.35-1106.56 4094.73-1106.56 4084.42-1102.35 4076.42-1093.93 4068.42-1085.51 4063.57-1073.54 4061.87-1058.02L4061.87-1057.73 3982.5-1057.73 3982.5-1058.02C3985.14-1097.19 3997.61-1127.57 4019.93-1149.14 4042.24-1170.71 4071.19-1181.5 4106.78-1181.5Z" stroke="#6B6E74" stroke-width="6.875" stroke-miterlimit="8" fill="#6B6E74" fill-rule="evenodd"/><path d="M4449.94-1181.5C4472.24-1181.5 4494.91-1177.77 4517.96-1170.29 4541-1162.82 4562.45-1152.19 4582.28-1138.38L4549.41-1072.56C4533.54-1083.72 4516.96-1092.28 4499.68-1098.24 4482.39-1104.19 4465.81-1107.17 4449.94-1107.17 4426.14-1107.17 4407.72-1103.25 4394.69-1095.4 4381.65-1087.55 4375.13-1076.53 4375.13-1062.35L4375.13-1062.07C4375.13-1048.83 4379-1038.8 4386.75-1031.99 4394.5-1025.19 4404.6-1020.13 4417.07-1016.82 4429.54-1013.51 4442.95-1010.43 4457.31-1007.6 4473.18-1004.57 4488.96-1000.83 4504.64-996.39 4520.32-991.946 4534.67-985.563 4547.71-977.241 4560.75-968.92 4571.14-957.478 4578.88-942.914 4586.63-928.351 4590.5-909.439 4590.5-886.176L4590.5-885.608C4590.5-845.891 4576.8-815.111 4549.41-793.266 4522.02-771.422 4483.38-760.5 4433.51-760.5 4413.86-760.5 4394.64-762.485 4375.84-766.457 4357.04-770.429 4339.43-776.244 4322.99-783.905 4306.55-791.564 4291.72-800.784 4278.5-811.565L4314.49-875.679C4330.36-862.629 4348.68-852.558 4369.46-845.466 4390.25-838.374 4411.59-834.827 4433.51-834.827 4458.82-834.827 4478.47-839.13 4492.45-847.735 4506.43-856.341 4513.42-868.492 4513.42-884.19L4513.42-884.473C4513.42-896.389 4509.93-905.514 4502.94-911.85 4495.95-918.185 4486.74-922.866 4475.31-925.893 4463.88-928.919 4451.46-931.472 4438.04-933.552 4421.98-936.011 4405.74-939.084 4389.3-942.773 4372.86-946.46 4357.75-952.323 4343.96-960.362 4330.17-968.399 4319.07-979.889 4310.66-994.83 4302.26-1009.77 4298.05-1029.72 4298.05-1054.69L4298.05-1054.97C4298.05-1095.26 4311.28-1126.42 4337.73-1148.45 4364.17-1170.48 4401.58-1181.5 4449.94-1181.5Z" stroke="#6B6E74" stroke-width="6.875" stroke-miterlimit="8" fill="#6B6E74" fill-rule="evenodd"/><path d="M5115.71-1181.5C5141.81-1181.5 5165.02-1175.92 5185.35-1164.76 5205.68-1153.6 5222.51-1137.43 5235.84-1116.25 5249.18-1095.07 5258.39-1069.35 5263.5-1039.09L5182.94-1039.09C5179.91-1052.89 5175.23-1064.57 5168.9-1074.12 5162.56-1083.67 5154.9-1091 5145.92-1096.11 5136.94-1101.21 5126.87-1103.77 5115.71-1103.77 5093.96-1103.77 5077.08-1097.1 5065.08-1083.77 5053.07-1070.43 5047.06-1051.66 5047.06-1027.45L5047.06-914.261C5047.06-890.053 5053.07-871.329 5065.08-858.09 5077.08-844.851 5093.96-838.231 5115.71-838.231 5132.73-838.231 5147.1-843.858 5158.83-855.111 5170.55-866.365 5178.59-882.298 5182.94-902.914L5263.5-902.914C5258.21-872.842 5248.89-847.168 5235.56-825.891 5222.23-804.614 5205.44-788.396 5185.21-777.237 5164.97-766.079 5141.81-760.5 5115.71-760.5 5084.13-760.5 5057.23-766.504 5035.01-778.514 5012.79-790.523 4995.81-808.018 4984.09-830.997 4972.36-853.976 4966.5-881.731 4966.5-914.261L4966.5-1027.45C4966.5-1060.17 4972.36-1087.98 4984.09-1110.86 4995.81-1133.75 5012.79-1151.24 5035.01-1163.34 5057.23-1175.45 5084.13-1181.5 5115.71-1181.5Z" stroke="#6B6E74" stroke-width="6.875" stroke-miterlimit="8" fill="#6B6E74" fill-rule="evenodd"/><path d="M4654.5-1176.5 4682.88-1176.5 4732.25-1176.5 4925.5-1176.5 4925.5-1101.69 4732.25-1101.69 4732.25-1002.8 4894.29-1002.8 4894.29-927.996 4732.25-927.996 4732.25-764.5 4654.5-764.5 4654.5-1176.5Z" stroke="#6B6E74" stroke-width="6.875" stroke-miterlimit="8" fill="#6B6E74" fill-rule="evenodd"/><path d="M5437.31-1176.5 5486.69-1176.5 5644.5-764.5 5560.77-764.5 5537.6-830.522 5386.4-830.522 5363.23-764.5 5279.5-764.5 5437.31-1176.5ZM5462-1045.87 5412.66-905.328 5511.34-905.328 5462-1045.87Z" stroke="#6B6E74" stroke-width="6.875" stroke-miterlimit="8" fill="#6B6E74" fill-rule="evenodd"/><path d="M4773.86-580.5C4785.65-580.5 4795.04-576.975 4802.03-569.925 4809.01-562.875 4812.5-553.718 4812.5-542.453 4812.5-534.836 4811.16-527.32 4808.47-519.905 4805.78-512.49 4801.3-504.184 4795.04-494.986 4788.79-485.789 4780-474.383 4768.68-460.768 4752.71-441.32 4741.11-427.462 4733.89-419.197L4806.36-419.197 4804.68-408.5 4711.5-408.5C4722.82-421.304 4736.18-437.146 4751.59-456.028 4765.39-472.965 4775.8-486.497 4782.83-496.627 4789.85-506.757 4794.54-515.063 4796.91-521.546 4799.28-528.029 4800.46-534.593 4800.46-541.238 4800.46-549.828 4797.99-556.736 4793.06-561.963 4788.12-567.19 4781.2-569.803 4772.29-569.803 4761.14-569.803 4748.58-564.901 4734.61-555.095L4736.66-567.859C4743.16-572.153 4749.42-575.334 4755.44-577.4 4761.46-579.467 4767.6-580.5 4773.86-580.5Z" stroke="#6B6E74" stroke-width="6.875" stroke-miterlimit="8" fill="#6B6E74" fill-rule="evenodd"/><path d="M4896.02-580.5C4906.12-580.5 4915.61-578.112 4924.5-573.336L4922.56-561.679C4917.96-564.432 4913.53-566.435 4909.29-567.69 4905.05-568.945 4900.63-569.572 4896.02-569.572 4885.93-569.572 4877.73-566.456 4871.43-560.222 4865.13-553.989 4861.98-546.34 4861.98-537.273 4861.98-530.474 4863.67-524.463 4867.07-519.242 4870.46-514.021 4876.88-507.93 4886.33-500.968 4898.04-492.144 4906.34-483.969 4911.23-476.44 4916.12-468.912 4918.56-460.25 4918.56-450.456 4918.56-442.199 4916.62-434.711 4912.75-427.992 4908.87-421.273 4903.46-416.012 4896.51-412.207 4889.56-408.402 4881.61-406.5 4872.64-406.5 4866.74-406.5 4860.64-407.492 4854.34-409.475 4848.04-411.458 4842.43-414.029 4837.5-417.185L4839.68-429.328C4844.77-425.523 4850.18-422.589 4855.92-420.525 4861.65-418.46 4867.15-417.428 4872.4-417.428 4882.49-417.428 4890.69-420.444 4896.99-426.474 4903.3-432.505 4906.45-440.418 4906.45-450.213 4906.45-457.66 4904.43-464.419 4900.39-470.49 4896.35-476.562 4889.28-483.402 4879.18-491.011 4868.6-498.944 4861.07-506.351 4856.58-513.232 4852.1-520.112 4849.86-528.045 4849.86-537.031 4849.86-544.964 4851.76-552.249 4855.55-558.887 4859.35-565.525 4864.76-570.786 4871.79-574.672 4878.82-578.557 4886.9-580.5 4896.02-580.5Z" stroke="#6B6E74" stroke-width="6.875" stroke-miterlimit="8" fill="#6B6E74" fill-rule="evenodd"/><path d="M5147.52-580.5C5153.95-580.5 5159.95-580.015 5165.5-579.043L5163.57-568.358C5156.17-569.167 5150.9-569.572 5147.76-569.572 5129.17-569.572 5112.58-565.262 5097.97-556.641 5083.37-548.019 5072.03-536.666 5063.94-522.581 5055.85-508.496 5051.81-493.48 5051.81-477.533 5051.81-466.443 5054-456.345 5058.39-447.238 5062.77-438.131 5068.93-430.886 5076.85-425.503 5084.78-420.12 5093.85-417.428 5104.07-417.428 5119.68-417.428 5136.37-423.216 5154.16-434.792L5152.47-421.314C5144.74-416.7 5136.55-413.078 5127.91-410.446 5119.26-407.816 5111.11-406.5 5103.47-406.5 5090.35-406.5 5078.97-409.718 5069.31-416.154 5059.66-422.589 5052.27-431.21 5047.16-442.017 5042.05-452.824 5039.5-464.5 5039.5-477.047 5039.5-496.313 5044.33-513.819 5053.98-529.563 5063.64-545.308 5076.69-557.733 5093.15-566.84 5109.6-575.947 5127.72-580.5 5147.52-580.5Z" stroke="#6B6E74" stroke-width="6.875" stroke-miterlimit="8" fill="#6B6E74" fill-rule="evenodd"/><path d="M5240.21-579.5 5251.39-579.5 5287.5-408.5 5276.32-408.5 5263.31-468.368 5201.79-468.368 5175.41-408.5 5163.5-408.5 5240.21-579.5ZM5243.37-562.655 5206.05-477.942 5261.61-477.942 5243.37-562.655Z" stroke="#6B6E74" stroke-width="6.875" stroke-miterlimit="8" fill="#6B6E74" fill-rule="evenodd"/><path d="M4399.78-577.5 4410.5-577.5 4386.98-408.5 4376.5-408.5 4399.78-577.5Z" stroke="#6B6E74" stroke-width="6.875" stroke-miterlimit="8" fill="#6B6E74" fill-rule="evenodd"/><path d="M4623.85-577.5 4634.5-577.5 4611.27-409.751C4603.77-408.467 4598.51-407.604 4595.49-407.163 4592.46-406.721 4588.53-406.5 4583.69-406.5 4566.52-406.5 4553.19-411.036 4543.71-420.108 4534.24-429.18 4529.5-441.503 4529.5-457.078 4529.5-469.762 4532.42-481.041 4538.27-490.916 4544.12-500.791 4552.2-508.518 4562.52-514.097 4572.85-519.677 4584.38-522.467 4597.12-522.467 4604.54-522.467 4610.91-522.146 4616.23-521.503L4623.85-577.5ZM4598.09-513.555C4586.07-513.555 4575.71-511.007 4567-505.909 4558.29-500.811 4551.72-493.987 4547.28-485.437 4542.85-476.887 4540.63-467.594 4540.63-457.559 4540.63-444.313 4544.5-434.017 4552.24-426.671 4559.98-419.325 4570.71-415.652 4584.42-415.652 4590.87-415.652 4596.68-416.415 4601.84-417.94L4614.9-512.352C4609.5-513.154 4603.9-513.555 4598.09-513.555Z" stroke="#6B6E74" stroke-width="6.875" stroke-miterlimit="8" fill="#6B6E74" fill-rule="evenodd"/><path d="M4965.7-577.5 5040.5-577.5 5038.93-566.854 4975.85-566.854 4966.67-499.956 5025.15-499.956 5023.94-489.31 4965.22-489.31 4954.34-408.5 4942.5-408.5 4965.7-577.5Z" stroke="#6B6E74" stroke-width="6.875" stroke-miterlimit="8" fill="#6B6E74" fill-rule="evenodd"/><path d="M4353.96-568.5 4364.5-568.5 4362.04-549.5 4351.5-549.5 4353.96-568.5Z" stroke="#6B6E74" stroke-width="6.875" stroke-miterlimit="8" fill="#6B6E74" fill-rule="evenodd"/><path d="M3872.01-522.5C3883.59-522.5 3892.89-518.313 3899.94-509.938 3906.98-501.564 3910.5-490.244 3910.5-475.98 3910.5-472.214 3910.34-469.769 3910.01-468.647L3832.91-468.647C3832.59-464.64 3832.43-461.435 3832.43-459.031 3832.43-445.407 3835.67-434.769 3842.14-427.116 3848.62-419.462 3857.24-415.636 3868-415.636 3873.75-415.636 3879.42-416.698 3885-418.821 3890.59-420.945 3896.5-424.331 3902.73-428.979L3901.51-417.92C3890.91-410.307 3879.5-406.5 3867.28-406.5 3853.19-406.5 3842.04-411.268 3833.82-420.805 3825.61-430.341 3821.5-443.163 3821.5-459.271 3821.5-470.57 3823.69-481.069 3828.06-490.765 3832.43-500.462 3838.48-508.175 3846.21-513.905 3853.94-519.635 3862.54-522.5 3872.01-522.5ZM3871.4-513.364C3862.98-513.364 3855.38-510.078 3848.58-503.507 3841.78-496.936 3837.12-488 3834.61-476.701L3899.82-476.701C3899.82-488.241 3897.33-497.237 3892.35-503.688 3887.37-510.139 3880.39-513.364 3871.4-513.364Z" stroke="#6B6E74" stroke-width="6.875" stroke-miterlimit="8" fill="#6B6E74" fill-rule="evenodd"/><path d="M3993.73-522.5C3998.98-522.5 4005.23-521.699 4012.5-520.096L4011.05-510.479C4003.62-512.082 3997.57-512.883 3992.88-512.883 3981.99-512.883 3972.4-510.219 3964.13-504.89 3955.85-499.561 3949.5-492.508 3945.06-483.733 3940.62-474.958 3938.4-465.642 3938.4-455.785 3938.4-444.165 3941.53-434.649 3947.78-427.236 3954.04-419.823 3962.9-416.117 3974.36-416.117 3984.77-416.117 3994.7-419.082 4004.15-425.012L4002.57-413.713C3992.97-408.904 3982.79-406.5 3972.06-406.5 3962.69-406.5 3954.66-408.724 3947.96-413.172 3941.26-417.619 3936.18-423.61 3932.71-431.143 3929.24-438.676 3927.5-447.13 3927.5-456.506 3927.5-468.046 3930.14-478.845 3935.43-488.902 3940.72-498.96 3948.37-507.073 3958.38-513.244 3968.39-519.415 3980.17-522.5 3993.73-522.5Z" stroke="#6B6E74" stroke-width="6.875" stroke-miterlimit="8" fill="#6B6E74" fill-rule="evenodd"/><path d="M4073.09-522.5C4084.64-522.5 4093.93-518.193 4100.96-509.578 4107.99-500.963 4111.5-489.603 4111.5-475.499 4111.5-462.517 4109.4-450.817 4105.2-440.398 4101-429.981 4094.92-421.726 4086.96-415.636 4079.01-409.545 4069.74-406.5 4059.15-406.5 4047.12-406.5 4037.67-410.948 4030.8-419.843 4023.93-428.739 4020.5-439.717 4020.5-452.78 4020.5-466.243 4022.64-478.284 4026.92-488.902 4031.2-499.52 4037.32-507.775 4045.28-513.665 4053.24-519.555 4062.51-522.5 4073.09-522.5ZM4072.12-513.124C4063.31-513.124 4055.86-510.139 4049.76-504.168 4043.66-498.198 4039.08-490.525 4036.01-481.149 4032.94-471.773 4031.41-462.076 4031.41-452.059 4031.41-441.4 4034.01-432.705 4039.22-425.974 4044.43-419.242 4051.16-415.876 4059.4-415.876 4067.88-415.876 4075.25-418.541 4081.51-423.87 4087.77-429.199 4092.52-436.432 4095.75-445.567 4098.98-454.703 4100.59-464.841 4100.59-475.98 4100.59-487.44 4097.99-496.495 4092.78-503.147 4087.57-509.798 4080.68-513.124 4072.12-513.124Z" stroke="#6B6E74" stroke-width="6.875" stroke-miterlimit="8" fill="#6B6E74" fill-rule="evenodd"/><path d="M4306.73-522.5C4311.98-522.5 4318.23-521.699 4325.5-520.096L4324.05-510.479C4316.62-512.082 4310.57-512.883 4305.88-512.883 4294.99-512.883 4285.4-510.219 4277.13-504.89 4268.85-499.561 4262.5-492.508 4258.06-483.733 4253.62-474.958 4251.4-465.642 4251.4-455.785 4251.4-444.165 4254.53-434.649 4260.78-427.236 4267.04-419.823 4275.9-416.117 4287.36-416.117 4297.77-416.117 4307.7-419.082 4317.15-425.012L4315.57-413.713C4305.97-408.904 4295.79-406.5 4285.06-406.5 4275.69-406.5 4267.66-408.724 4260.96-413.172 4254.26-417.619 4249.18-423.61 4245.71-431.143 4242.24-438.676 4240.5-447.13 4240.5-456.506 4240.5-468.046 4243.14-478.845 4248.43-488.902 4253.72-498.96 4261.37-507.073 4271.38-513.244 4281.39-519.415 4293.17-522.5 4306.73-522.5Z" stroke="#6B6E74" stroke-width="6.875" stroke-miterlimit="8" fill="#6B6E74" fill-rule="evenodd"/><path d="M4473.44-522.5C4484.89-522.5 4494.09-518.313 4501.06-509.938 4508.02-501.564 4511.5-490.244 4511.5-475.98 4511.5-472.214 4511.34-469.769 4511.02-468.647L4434.79-468.647C4434.47-464.64 4434.31-461.435 4434.31-459.031 4434.31-445.407 4437.51-434.769 4443.91-427.116 4450.31-419.462 4458.84-415.636 4469.48-415.636 4475.16-415.636 4480.77-416.698 4486.29-418.821 4491.81-420.945 4497.65-424.331 4503.82-428.979L4502.62-417.92C4492.13-410.307 4480.85-406.5 4468.76-406.5 4454.83-406.5 4443.81-411.268 4435.69-420.805 4427.56-430.341 4423.5-443.163 4423.5-459.271 4423.5-470.57 4425.66-481.069 4429.98-490.765 4434.31-500.462 4440.29-508.175 4447.93-513.905 4455.57-519.635 4464.08-522.5 4473.44-522.5ZM4472.84-513.364C4464.52-513.364 4457-510.078 4450.27-503.507 4443.55-496.936 4438.95-488 4436.47-476.701L4500.94-476.701C4500.94-488.241 4498.47-497.237 4493.55-503.688 4488.63-510.139 4481.73-513.364 4472.84-513.364Z" stroke="#6B6E74" stroke-width="6.875" stroke-miterlimit="8" fill="#6B6E74" fill-rule="evenodd"/><path d="M3811.55-522.5C3815.2-522.5 3818.85-521.566 3822.5-519.699L3818.85-508.981C3815.69-510.686 3812.53-511.538 3809.36-511.538 3803.04-511.538 3796.88-508.717 3790.88-503.074 3784.88-497.431 3778.23-489.534 3770.93-479.384L3761.32-408.5 3750.5-408.5 3765.95-520.551 3776.65-520.551 3772.76-492.782C3781.03-503.744 3788.02-511.437 3793.74-515.862 3799.45-520.287 3805.39-522.5 3811.55-522.5Z" stroke="#6B6E74" stroke-width="6.875" stroke-miterlimit="8" fill="#6B6E74" fill-rule="evenodd"/><path d="M4195.44-522.5C4203.68-522.5 4210.09-519.841 4214.65-514.522 4219.22-509.204 4221.5-501.714 4221.5-492.051 4221.5-488.073 4221.1-483.566 4220.3-478.532L4210.45-408.5 4199.88-408.5 4209.73-478.532C4210.53-483.891 4210.93-488.316 4210.93-491.807 4210.93-498.953 4209.33-504.352 4206.13-508.006 4202.92-511.66 4198.48-513.487 4192.79-513.487 4179.66-513.487 4165.65-504.84 4150.76-487.545L4139.83-408.5 4129.5-408.5 4144.51-520.551 4155.08-520.551 4152.2-498.993C4166.45-514.664 4180.86-522.5 4195.44-522.5Z" stroke="#6B6E74" stroke-width="6.875" stroke-miterlimit="8" fill="#6B6E74" fill-rule="evenodd"/><path d="M4348-520.5 4358.5-520.5 4343.24-408.5 4332.5-408.5 4348-520.5Z" stroke="#6B6E74" stroke-width="6.875" stroke-miterlimit="8" fill="#6B6E74" fill-rule="evenodd"/></g></svg>