<svg width="721" height="720" xmlns="http://www.w3.org/2000/svg" xmlns:xlink="http://www.w3.org/1999/xlink" xml:space="preserve" overflow="hidden"><defs><clipPath id="clip0"><rect x="2957" y="765" width="721" height="720"/></clipPath><linearGradient x1="0.500363" y1="422.5" x2="720.5" y2="-298.5" gradientUnits="userSpaceOnUse" spreadMethod="reflect" id="fill1"><stop offset="0" stop-color="#1FC0E9"/><stop offset="0.48" stop-color="#C96CEC"/><stop offset="0.97" stop-color="#F75358"/><stop offset="1" stop-color="#F75358"/></linearGradient><linearGradient x1="-360.5" y1="349.5" x2="359.5" y2="-371.5" gradientUnits="userSpaceOnUse" spreadMethod="reflect" id="fill2"><stop offset="0" stop-color="#1FC0E9"/><stop offset="0.48" stop-color="#C96CEC"/><stop offset="0.97" stop-color="#F75358"/><stop offset="1" stop-color="#F75358"/></linearGradient><linearGradient x1="-360.5" y1="448.5" x2="359.5" y2="-272.5" gradientUnits="userSpaceOnUse" spreadMethod="reflect" id="fill3"><stop offset="0" stop-color="#1FC0E9"/><stop offset="0.48" stop-color="#C96CEC"/><stop offset="0.97" stop-color="#F75358"/><stop offset="1" stop-color="#F75358"/></linearGradient><linearGradient x1="-360.5" y1="274.5" x2="359.5" y2="-446.5" gradientUnits="userSpaceOnUse" spreadMethod="reflect" id="fill4"><stop offset="0" stop-color="#1FC0E9"/><stop offset="0.48" stop-color="#C96CEC"/><stop offset="0.97" stop-color="#F75358"/><stop offset="1" stop-color="#F75358"/></linearGradient><linearGradient x1="-360.5" y1="274.5" x2="359.5" y2="-446.5" gradientUnits="userSpaceOnUse" spreadMethod="reflect" id="fill5"><stop offset="0" stop-color="#1FC0E9"/><stop offset="0.48" stop-color="#C96CEC"/><stop offset="0.97" stop-color="#F75358"/><stop offset="1" stop-color="#F75358"/></linearGradient><linearGradient x1="-285.5" y1="349.5" x2="434.5" y2="-371.5" gradientUnits="userSpaceOnUse" spreadMethod="reflect" id="fill6"><stop offset="0" stop-color="#1FC0E9"/><stop offset="0.48" stop-color="#C96CEC"/><stop offset="0.97" stop-color="#F75358"/><stop offset="1" stop-color="#F75358"/></linearGradient><linearGradient x1="-360.5" y1="349.5" x2="359.5" y2="-371.5" gradientUnits="userSpaceOnUse" spreadMethod="reflect" id="fill7"><stop offset="0" stop-color="#1FC0E9"/><stop offset="0.48" stop-color="#C96CEC"/><stop offset="0.97" stop-color="#F75358"/><stop offset="1" stop-color="#F75358"/></linearGradient><linearGradient x1="-380.5" y1="388.5" x2="339.5" y2="-332.5" gradientUnits="userSpaceOnUse" spreadMethod="reflect" id="fill8"><stop offset="0" stop-color="#1FC0E9"/><stop offset="0.48" stop-color="#C96CEC"/><stop offset="0.97" stop-color="#F75358"/><stop offset="1" stop-color="#F75358"/></linearGradient><linearGradient x1="-285.5" y1="388.5" x2="434.5" y2="-332.5" gradientUnits="userSpaceOnUse" spreadMethod="reflect" id="fill9"><stop offset="0" stop-color="#1FC0E9"/><stop offset="0.48" stop-color="#C96CEC"/><stop offset="0.97" stop-color="#F75358"/><stop offset="1" stop-color="#F75358"/></linearGradient><linearGradient x1="-285.5" y1="448.5" x2="434.5" y2="-272.5" gradientUnits="userSpaceOnUse" spreadMethod="reflect" id="fill10"><stop offset="0" stop-color="#1FC0E9"/><stop offset="0.48" stop-color="#C96CEC"/><stop offset="0.97" stop-color="#F75358"/><stop offset="1" stop-color="#F75358"/></linearGradient><linearGradient x1="-360.5" y1="447.5" x2="359.5" y2="-273.5" gradientUnits="userSpaceOnUse" spreadMethod="reflect" id="fill11"><stop offset="0" stop-color="#1FC0E9"/><stop offset="0.48" stop-color="#C96CEC"/><stop offset="0.97" stop-color="#F75358"/><stop offset="1" stop-color="#F75358"/></linearGradient><linearGradient x1="-360.5" y1="449.5" x2="359.5" y2="-271.5" gradientUnits="userSpaceOnUse" spreadMethod="reflect" id="fill12"><stop offset="0" stop-color="#1FC0E9"/><stop offset="0.48" stop-color="#C96CEC"/><stop offset="0.97" stop-color="#F75358"/><stop offset="1" stop-color="#F75358"/></linearGradient><linearGradient x1="-360.5" y1="449.5" x2="359.5" y2="-271.5" gradientUnits="userSpaceOnUse" spreadMethod="reflect" id="fill13"><stop offset="0" stop-color="#1FC0E9"/><stop offset="0.48" stop-color="#C96CEC"/><stop offset="0.97" stop-color="#F75358"/><stop offset="1" stop-color="#F75358"/></linearGradient><linearGradient x1="-465.5" y1="354.5" x2="254.5" y2="-366.5" gradientUnits="userSpaceOnUse" spreadMethod="reflect" id="fill14"><stop offset="0" stop-color="#1FC0E9"/><stop offset="0.48" stop-color="#C96CEC"/><stop offset="0.97" stop-color="#F75358"/><stop offset="1" stop-color="#F75358"/></linearGradient><linearGradient x1="-531.5" y1="393.5" x2="188.5" y2="-327.5" gradientUnits="userSpaceOnUse" spreadMethod="reflect" id="fill15"><stop offset="0" stop-color="#1FC0E9"/><stop offset="0.48" stop-color="#C96CEC"/><stop offset="0.97" stop-color="#F75358"/><stop offset="1" stop-color="#F75358"/></linearGradient><linearGradient x1="-465.5" y1="383.5" x2="254.5" y2="-337.5" gradientUnits="userSpaceOnUse" spreadMethod="reflect" id="fill16"><stop offset="0" stop-color="#1FC0E9"/><stop offset="0.48" stop-color="#C96CEC"/><stop offset="0.97" stop-color="#F75358"/><stop offset="1" stop-color="#F75358"/></linearGradient><linearGradient x1="-465.5" y1="436.5" x2="254.5" y2="-284.5" gradientUnits="userSpaceOnUse" spreadMethod="reflect" id="fill17"><stop offset="0" stop-color="#1FC0E9"/><stop offset="0.48" stop-color="#C96CEC"/><stop offset="0.97" stop-color="#F75358"/><stop offset="1" stop-color="#F75358"/></linearGradient><linearGradient x1="-196.5" y1="566.5" x2="523.5" y2="-154.5" gradientUnits="userSpaceOnUse" spreadMethod="reflect" id="fill18"><stop offset="0" stop-color="#1FC0E9"/><stop offset="0.48" stop-color="#C96CEC"/><stop offset="0.97" stop-color="#F75358"/><stop offset="1" stop-color="#F75358"/></linearGradient><linearGradient x1="-129.5" y1="669.5" x2="590.5" y2="-51.4995" gradientUnits="userSpaceOnUse" spreadMethod="reflect" id="fill19"><stop offset="0" stop-color="#1FC0E9"/><stop offset="0.48" stop-color="#C96CEC"/><stop offset="0.97" stop-color="#F75358"/><stop offset="1" stop-color="#F75358"/></linearGradient><linearGradient x1="-285.5" y1="720.5" x2="434.5" y2="-0.499656" gradientUnits="userSpaceOnUse" spreadMethod="reflect" id="fill20"><stop offset="0" stop-color="#1FC0E9"/><stop offset="0.48" stop-color="#C96CEC"/><stop offset="0.97" stop-color="#F75358"/><stop offset="1" stop-color="#F75358"/></linearGradient><linearGradient x1="2957.5" y1="764.5" x2="3677.5" y2="1485.5" gradientUnits="userSpaceOnUse" spreadMethod="reflect" id="fill21"><stop offset="0" stop-color="#1FC0E9"/><stop offset="0.48" stop-color="#C96CEC"/><stop offset="0.97" stop-color="#F75358"/><stop offset="1" stop-color="#F75358"/></linearGradient><linearGradient x1="2957.5" y1="764.5" x2="3677.5" y2="1485.5" gradientUnits="userSpaceOnUse" spreadMethod="reflect" id="fill22"><stop offset="0" stop-color="#1FC0E9"/><stop offset="0.48" stop-color="#C96CEC"/><stop offset="0.97" stop-color="#F75358"/><stop offset="1" stop-color="#F75358"/></linearGradient><linearGradient x1="2957.5" y1="764.5" x2="3677.5" y2="1485.5" gradientUnits="userSpaceOnUse" spreadMethod="reflect" id="fill23"><stop offset="0" stop-color="#1FC0E9"/><stop offset="0.48" stop-color="#C96CEC"/><stop offset="0.97" stop-color="#F75358"/><stop offset="1" stop-color="#F75358"/></linearGradient><linearGradient x1="2957.5" y1="764.5" x2="3677.5" y2="1485.5" gradientUnits="userSpaceOnUse" spreadMethod="reflect" id="fill24"><stop offset="0" stop-color="#1FC0E9"/><stop offset="0.48" stop-color="#C96CEC"/><stop offset="0.97" stop-color="#F75358"/><stop offset="1" stop-color="#F75358"/></linearGradient><linearGradient x1="2957.5" y1="764.5" x2="3677.5" y2="1485.5" gradientUnits="userSpaceOnUse" spreadMethod="reflect" id="fill25"><stop offset="0" stop-color="#1FC0E9"/><stop offset="0.48" stop-color="#C96CEC"/><stop offset="0.97" stop-color="#F75358"/><stop offset="1" stop-color="#F75358"/></linearGradient><linearGradient x1="2957.5" y1="764.5" x2="3677.5" y2="1485.5" gradientUnits="userSpaceOnUse" spreadMethod="reflect" id="fill26"><stop offset="0" stop-color="#1FC0E9"/><stop offset="0.48" stop-color="#C96CEC"/><stop offset="0.97" stop-color="#F75358"/><stop offset="1" stop-color="#F75358"/></linearGradient><linearGradient x1="2957.5" y1="764.5" x2="3677.5" y2="1485.5" gradientUnits="userSpaceOnUse" spreadMethod="reflect" id="fill27"><stop offset="0" stop-color="#1FC0E9"/><stop offset="0.48" stop-color="#C96CEC"/><stop offset="0.97" stop-color="#F75358"/><stop offset="1" stop-color="#F75358"/></linearGradient><linearGradient x1="2957.5" y1="764.5" x2="3677.5" y2="1485.5" gradientUnits="userSpaceOnUse" spreadMethod="reflect" id="fill28"><stop offset="0" stop-color="#1FC0E9"/><stop offset="0.48" stop-color="#C96CEC"/><stop offset="0.97" stop-color="#F75358"/><stop offset="1" stop-color="#F75358"/></linearGradient><linearGradient x1="720.5" y1="-298.5" x2="0.500377" y2="422.5" gradientUnits="userSpaceOnUse" spreadMethod="reflect" id="fill29"><stop offset="0" stop-color="#1FC0E9"/><stop offset="0.48" stop-color="#C96CEC"/><stop offset="0.97" stop-color="#F75358"/><stop offset="1" stop-color="#F75358"/></linearGradient><linearGradient x1="523.5" y1="-150.5" x2="-196.5" y2="570.5" gradientUnits="userSpaceOnUse" spreadMethod="reflect" id="fill30"><stop offset="0" stop-color="#1FC0E9"/><stop offset="0.48" stop-color="#C96CEC"/><stop offset="0.97" stop-color="#F75358"/><stop offset="1" stop-color="#F75358"/></linearGradient><linearGradient x1="255.5" y1="-284.5" x2="-464.5" y2="436.5" gradientUnits="userSpaceOnUse" spreadMethod="reflect" id="fill31"><stop offset="0" stop-color="#1FC0E9"/><stop offset="0.48" stop-color="#C96CEC"/><stop offset="0.97" stop-color="#F75358"/><stop offset="1" stop-color="#F75358"/></linearGradient><linearGradient x1="190.5" y1="-329.5" x2="-529.5" y2="391.499" gradientUnits="userSpaceOnUse" spreadMethod="reflect" id="fill32"><stop offset="0" stop-color="#1FC0E9"/><stop offset="0.48" stop-color="#C96CEC"/><stop offset="0.97" stop-color="#F75358"/><stop offset="1" stop-color="#F75358"/></linearGradient><linearGradient x1="255.5" y1="-340.5" x2="-464.5" y2="380.499" gradientUnits="userSpaceOnUse" spreadMethod="reflect" id="fill33"><stop offset="0" stop-color="#1FC0E9"/><stop offset="0.48" stop-color="#C96CEC"/><stop offset="0.97" stop-color="#F75358"/><stop offset="1" stop-color="#F75358"/></linearGradient><linearGradient x1="255.5" y1="-368.5" x2="-464.5" y2="352.5" gradientUnits="userSpaceOnUse" spreadMethod="reflect" id="fill34"><stop offset="0" stop-color="#1FC0E9"/><stop offset="0.48" stop-color="#C96CEC"/><stop offset="0.97" stop-color="#F75358"/><stop offset="1" stop-color="#F75358"/></linearGradient><linearGradient x1="523.5" y1="-421.5" x2="-196.5" y2="299.5" gradientUnits="userSpaceOnUse" spreadMethod="reflect" id="fill35"><stop offset="0" stop-color="#1FC0E9"/><stop offset="0.48" stop-color="#C96CEC"/><stop offset="0.97" stop-color="#F75358"/><stop offset="1" stop-color="#F75358"/></linearGradient><linearGradient x1="654.5" y1="-174.5" x2="-65.4996" y2="546.5" gradientUnits="userSpaceOnUse" spreadMethod="reflect" id="fill36"><stop offset="0" stop-color="#1FC0E9"/><stop offset="0.48" stop-color="#C96CEC"/><stop offset="0.97" stop-color="#F75358"/><stop offset="1" stop-color="#F75358"/></linearGradient><linearGradient x1="172.5" y1="-422.5" x2="-547.5" y2="298.5" gradientUnits="userSpaceOnUse" spreadMethod="reflect" id="fill37"><stop offset="0" stop-color="#1FC0E9"/><stop offset="0.48" stop-color="#C96CEC"/><stop offset="0.97" stop-color="#F75358"/><stop offset="1" stop-color="#F75358"/></linearGradient><linearGradient x1="590.5" y1="-51.4999" x2="-129.5" y2="669.5" gradientUnits="userSpaceOnUse" spreadMethod="reflect" id="fill38"><stop offset="0" stop-color="#1FC0E9"/><stop offset="0.48" stop-color="#C96CEC"/><stop offset="0.97" stop-color="#F75358"/><stop offset="1" stop-color="#F75358"/></linearGradient><linearGradient x1="435.5" y1="-0.499669" x2="-284.5" y2="720.5" gradientUnits="userSpaceOnUse" spreadMethod="reflect" id="fill39"><stop offset="0" stop-color="#1FC0E9"/><stop offset="0.48" stop-color="#C96CEC"/><stop offset="0.97" stop-color="#F75358"/><stop offset="1" stop-color="#F75358"/></linearGradient><linearGradient x1="2957.5" y1="764.5" x2="3677.5" y2="1485.5" gradientUnits="userSpaceOnUse" spreadMethod="reflect" id="fill40"><stop offset="0" stop-color="#1FC0E9"/><stop offset="0.48" stop-color="#C96CEC"/><stop offset="0.97" stop-color="#F75358"/><stop offset="1" stop-color="#F75358"/></linearGradient></defs><g clip-path="url(#clip0)" transform="translate(-2957 -765)"><path d="M0 61.9999 107 61.9999 107 26.7239 53.4999 0 0 26.7239 0 61.9999Z" fill="url(#fill1)" fill-rule="evenodd" transform="matrix(1 0 0 -1 2957 1187)"/><path d="M0.499836 76 0.999672 75.9641 0.999672 0.0734423 0 0 0 75.9641 0.499836 76Z" fill="url(#fill2)" fill-rule="evenodd" transform="matrix(1 0 0 -1 3318 1114)"/><path d="M0 77 0.999672 76.9252 0.999672 0.0364951 0.499836 0 0 0.0364951 0 77Z" fill="url(#fill3)" fill-rule="evenodd" transform="matrix(1 0 0 -1 3318 1213)"/><path d="M0 0.999672 0.999672 0.500854 0 0 0 0.999672Z" fill="url(#fill4)" fill-rule="evenodd" transform="matrix(1 0 0 -1 3318 1039)"/><path d="M0.999672 0.999672 0.999672 0 0 0.500854 0.999672 0.999672Z" fill="url(#fill5)" fill-rule="evenodd" transform="matrix(1 0 0 -1 3318 1039)"/><path d="M74.9999 76 74.9999 0.094832 74.8126 0 0 37.8709 0 38.9293 74.9999 76Z" fill="url(#fill6)" fill-rule="evenodd" transform="matrix(1 0 0 -1 3243 1114)"/><path d="M0 77 75.0003 39.3582 75.0003 38.5507 0 0 0 77Z" fill="url(#fill7)" fill-rule="evenodd" transform="matrix(1 0 0 -1 3318 1114)"/><path d="M55 56 55 28.0075 54.9999 28.0075 54.9999 0 0 27.9999 0.0147239 28.0075 55 56Z" fill="url(#fill8)" fill-rule="evenodd" transform="matrix(1 0 0 -1 3338 1153)"/><path d="M0 55 52.7889 27.6095 52.9999 27.5 0.000145232 0 0.000145232 27.6095 0 27.6095 0 55Z" fill="url(#fill9)" fill-rule="evenodd" transform="matrix(1 0 0 -1 3243 1153)"/><path d="M74.613 77 74.9999 76.8012 74.9999 0 0 37.6158 0 38.6747 74.613 77Z" fill="url(#fill10)" fill-rule="evenodd" transform="matrix(1 0 0 -1 3243 1213)"/><path d="M0 76 75.0003 37.8407 75.0003 37.2595 0 0 0 76Z" fill="url(#fill11)" fill-rule="evenodd" transform="matrix(1 0 0 -1 3318 1212)"/><path d="M0 0.999672 0.999672 0.499836 0 0 0 0.999672Z" fill="url(#fill12)" fill-rule="evenodd" transform="matrix(1 0 0 -1 3318 1214)"/><path d="M0.999672 0.999672 0.999672 0 0 0.499836 0.999672 0.999672Z" fill="url(#fill13)" fill-rule="evenodd" transform="matrix(1 0 0 -1 3318 1214)"/><path d="M65.0187 69.9998 129 37.9422 55.0594 0 0 28.2533 0 37.4225 65.0187 69.9998Z" fill="url(#fill14)" fill-rule="evenodd" transform="matrix(1 0 0 -1 3423 1119)"/><path d="M63.9999 66 63.9999 32.9326 63.9998 32.9328 63.9998 0 0.13012 32.9328 0 32.9999 63.9999 66Z" fill="url(#fill15)" fill-rule="evenodd" transform="matrix(1 0 0 -1 3489 1158)"/><path d="M0.00014602 46.0001 44 23.0001 0 0 0 22.9323 0.00014602 46.0001Z" fill="url(#fill16)" fill-rule="evenodd" transform="matrix(1 0 0 -1 3423 1148)"/><path d="M55.003 70.0001 129 32.0626 64.9521 0 0 32.5152 0 41.8006 55.003 70.0001Z" fill="url(#fill17)" fill-rule="evenodd" transform="matrix(1 0 0 -1 3423 1201)"/><path d="M65.5 151 131 118.457 131 112.402 50.4684 71.4241 54.9652 62.6981 131 101.388 131 32.543 65.5 0 0 32.543 0 118.457 65.5 151Z" fill="url(#fill18)" fill-rule="evenodd" transform="matrix(1 0 0 -1 3154 1331)"/><path d="M53.5001 124 107 97.276 107 26.7241 53.5001 0 0 26.7241 0 97.276 53.5001 124Z" fill="url(#fill19)" fill-rule="evenodd" transform="matrix(1 0 0 -1 3087 1434)"/><path d="M74.9999 175 74.9999 0 0 37.5412 0 137.459 74.9999 175Z" fill="url(#fill20)" fill-rule="evenodd" transform="matrix(1 0 0 -1 3243 1485)"/><path d="M2957 1125 3064 1125 3064 1089.72 3010.5 1063 2957 1089.72 2957 1125Z" fill="url(#fill21)" fill-rule="evenodd"/><path d="M3076.5 939 3130 965.724 3130 1021.39 3081.08 996.362 3073.47 1011.2 3126.2 1038.17 3076.5 1063 3023 1036.28 3023 965.724 3076.5 939Z" fill="url(#fill22)" fill-rule="evenodd"/><path d="M3558.5 1187 3612 1213.72 3612 1284.28 3558.5 1311 3505 1284.28 3505 1232.03 3553.09 1256.64 3560.7 1241.8 3505.42 1213.52 3558.5 1187Z" fill="url(#fill23)" fill-rule="evenodd"/><path d="M3140.5 941 3194 914.06 3194 842.94 3140.5 816 3087 842.94 3087 914.06 3140.5 941Z" fill="url(#fill24)" fill-rule="evenodd"/><path d="M3318 940 3318 765 3243 802.541 3243 902.459 3318 940Z" fill="url(#fill25)" fill-rule="evenodd"/><path d="M3678 1125 3571 1125 3571 1160.28 3624.5 1187 3678 1160.28 3678 1125Z" fill="url(#fill26)" fill-rule="evenodd"/><path d="M3494.5 1310 3441 1336.72 3441 1407.28 3494.5 1434 3548 1407.28 3548 1336.72 3494.5 1310Z" fill="url(#fill27)" fill-rule="evenodd"/><path d="M3318 1310 3318 1485 3393 1447.46 3393 1347.54 3318 1310Z" fill="url(#fill28)" fill-rule="evenodd"/><path d="M0 62.0002 107 62.0002 107 26.724 53.5001 0 0 26.724 0 62.0002Z" fill="url(#fill29)" fill-rule="evenodd" transform="matrix(-1 0 0 1 3678 1063)"/><path d="M65.5002 0 0 32.543 0 118.457 65.5002 151 129.818 119.044 46.5179 76.6579 51.0148 67.932 131 108.632 131 32.543 65.5002 0Z" fill="url(#fill30)" fill-rule="evenodd" transform="matrix(-1 0 0 1 3481 915)"/><path d="M65.5 0 0 32.9613 0 44.9769 54.3735 72.9999 131 33.5081 131 32.9613 65.5 0Z" fill="url(#fill31)" fill-rule="evenodd" transform="matrix(-1 0 0 1 3213 1049)"/><path d="M66 0 0 33.4999 65.9999 66.9997 65.9999 31.4186 66 31.4186 66 0Z" fill="url(#fill32)" fill-rule="evenodd" transform="matrix(-1 0 0 1 3148 1094)"/><path d="M0.000149686 0 0.000149686 19.9347 0 19.9347 0 44 44 22 39.8693 19.9347 0.000149686 0Z" fill="url(#fill33)" fill-rule="evenodd" transform="matrix(-1 0 0 1 3213 1105)"/><path d="M54.2031 0 0 27.703 0 35.4153 65.2946 68.0001 127 37.2063 54.2031 0Z" fill="url(#fill34)" fill-rule="evenodd" transform="matrix(-1 0 0 1 3213 1133)"/><path d="M65.5002 0 0 32.5431 0 118.457 65.5002 151 131 118.457 131 44.8937 61.7095 80.1514 57.2126 71.4254 131 33.8796 131 32.5431 65.5002 0Z" fill="url(#fill35)" fill-rule="evenodd" transform="matrix(-1 0 0 1 3481 1186)"/><path d="M53.5001 0 0 26.724 0 97.2757 53.5001 124 105.76 97.8952 48.8428 68.7775 56.4491 53.9384 107 79.7991 107 26.724 53.5001 0Z" fill="url(#fill36)" fill-rule="evenodd" transform="matrix(-1 0 0 1 3612 939)"/><path d="M53.5 0 2.97757 25.2368 54.4486 51.5683 46.8425 66.4076 0 42.4439 0 97.276 53.5 124 107 97.276 107 26.7241 53.5 0Z" fill="url(#fill37)" fill-rule="evenodd" transform="matrix(-1 0 0 1 3130 1187)"/><path d="M53.4999 125 107 98.0602 107 26.9395 53.4999 0 0 26.9395 0 98.0602 53.4999 125Z" fill="url(#fill38)" fill-rule="evenodd" transform="matrix(-1 0 0 1 3548 816)"/><path d="M75.0003 175 75.0003 0 0 37.5413 0 137.459 75.0003 175Z" fill="url(#fill39)" fill-rule="evenodd" transform="matrix(-1 0 0 1 3393 765)"/><path d="M3221.42 914.622 3286.62 947.222 3286.62 1021.52 3202.52 978.454 3198.05 987.196 3286.62 1032.55 3286.62 1033.29 3221.42 1065.89 3156.22 1033.29 3156.22 947.222 3221.42 914.622Z" fill="url(#fill40)" fill-rule="evenodd"/></g></svg>