<svg width="721" height="719" xmlns="http://www.w3.org/2000/svg" xmlns:xlink="http://www.w3.org/1999/xlink" xml:space="preserve" overflow="hidden"><defs><clipPath id="clip0"><rect x="630" y="800" width="721" height="719"/></clipPath></defs><g clip-path="url(#clip0)" transform="translate(-630 -800)"><path d="M0 62.9999 107 62.9999 107 27.1549 53.4999 0 0 27.1549 0 62.9999Z" fill="#6B6E74" fill-rule="evenodd" transform="matrix(1 0 0 -1 630 1222)"/><path d="M0.500016 77 1.00003 76.9636 1.00003 0.0744087 0 0 0 76.9636 0.500016 77Z" fill="#6B6E74" fill-rule="evenodd" transform="matrix(1 0 0 -1 990 1149)"/><path d="M0 77 1.00003 76.9252 1.00003 0.0364951 0.500016 0 0 0.0364951 0 77Z" fill="#6B6E74" fill-rule="evenodd" transform="matrix(1 0 0 -1 990 1247)"/><path d="M0 0.999672 1.00003 0.500854 0 0 0 0.999672Z" fill="#6B6E74" fill-rule="evenodd" transform="matrix(1 0 0 -1 990 1073)"/><path d="M0.999672 0.999672 0.999672 0 0 0.500854 0.999672 0.999672Z" fill="#6B6E74" fill-rule="evenodd" transform="matrix(1 0 0 -1 991 1073)"/><path d="M73.9999 77 73.9999 0.0960798 73.8151 0 0 38.3693 0 39.4415 73.9999 77Z" fill="#6B6E74" fill-rule="evenodd" transform="matrix(1 0 0 -1 916 1149)"/><path d="M0 76 74.9999 38.847 74.9999 38.05 0 0 0 76Z" fill="#6B6E74" fill-rule="evenodd" transform="matrix(1 0 0 -1 991 1148)"/><path d="M55 55 55 27.5073 54.9999 27.5073 54.9999 0 0 27.4999 0.0147239 27.5073 55 55Z" fill="#6B6E74" fill-rule="evenodd" transform="matrix(1 0 0 -1 1011 1187)"/><path d="M0 55 52.7889 27.6095 52.9999 27.5 0.000145232 0 0.000145232 27.6095 0 27.6095 0 55Z" fill="#6B6E74" fill-rule="evenodd" transform="matrix(1 0 0 -1 916 1187)"/><path d="M73.6181 77 73.9999 76.8012 73.9999 0 0 37.6158 0 38.6747 73.6181 77Z" fill="#6B6E74" fill-rule="evenodd" transform="matrix(1 0 0 -1 916 1247)"/><path d="M0 77 74.9999 38.3386 74.9999 37.7498 0 0 0 77Z" fill="#6B6E74" fill-rule="evenodd" transform="matrix(1 0 0 -1 991 1247)"/><path d="M0 0.999672 1.00003 0.499836 0 0 0 0.999672Z" fill="#6B6E74" fill-rule="evenodd" transform="matrix(1 0 0 -1 990 1248)"/><path d="M0.999672 0.999672 0.999672 0 0 0.499836 0.999672 0.999672Z" fill="#6B6E74" fill-rule="evenodd" transform="matrix(1 0 0 -1 991 1248)"/><path d="M65.0188 70.0001 129 37.9424 55.0596 0 0 28.2535 0 37.4227 65.0188 70.0001Z" fill="#6B6E74" fill-rule="evenodd" transform="matrix(1 0 0 -1 1096 1154)"/><path d="M64.0003 66 64.0003 32.9326 64.0001 32.9328 64.0001 0 0.130121 32.9328 0 32.9999 64.0003 66Z" fill="#6B6E74" fill-rule="evenodd" transform="matrix(1 0 0 -1 1162 1192)"/><path d="M0.00014602 45 44 22.5001 0 0 0 22.4337 0.00014602 45Z" fill="#6B6E74" fill-rule="evenodd" transform="matrix(1 0 0 -1 1096 1182)"/><path d="M55.0032 70.0001 129 32.0626 64.9523 0 0 32.5152 0 41.8006 55.0032 70.0001Z" fill="#6B6E74" fill-rule="evenodd" transform="matrix(1 0 0 -1 1096 1235)"/><path d="M65.5 151 131 118.457 131 112.402 50.4684 71.4241 54.9652 62.6981 131 101.388 131 32.543 65.5 0 0 32.543 0 118.457 65.5 151Z" fill="#6B6E74" fill-rule="evenodd" transform="matrix(1 0 0 -1 827 1365)"/><path d="M53.4999 124 107 97.276 107 26.7241 53.4999 0 0 26.7241 0 97.276 53.4999 124Z" fill="#6B6E74" fill-rule="evenodd" transform="matrix(1 0 0 -1 760 1468)"/><path d="M74.9999 175 74.9999 0 0 37.5412 0 137.459 74.9999 175Z" fill="#6B6E74" fill-rule="evenodd" transform="matrix(1 0 0 -1 916 1519)"/><path d="M630 1159 737 1159 737 1123.72 683.5 1097 630 1123.72 630 1159Z" fill="#6B6E74" fill-rule="evenodd"/><path d="M749.5 973 803 999.724 803 1055.39 754.08 1030.36 746.474 1045.2 799.199 1072.17 749.5 1097 696 1070.28 696 999.724 749.5 973Z" fill="#6B6E74" fill-rule="evenodd"/><path d="M1231.5 1221 1285 1247.94 1285 1319.06 1231.5 1346 1178 1319.06 1178 1266.4 1226.09 1291.2 1233.7 1276.24 1178.42 1247.73 1231.5 1221Z" fill="#6B6E74" fill-rule="evenodd"/><path d="M813.5 975 867 948.276 867 877.724 813.5 851 760 877.724 760 948.276 813.5 975Z" fill="#6B6E74" fill-rule="evenodd"/><path d="M991 975 991 800 916 837.541 916 937.458 991 975Z" fill="#6B6E74" fill-rule="evenodd"/><path d="M1351 1159 1244 1159 1244 1194.85 1297.5 1222 1351 1194.85 1351 1159Z" fill="#6B6E74" fill-rule="evenodd"/><path d="M1167.5 1344 1114 1370.72 1114 1441.28 1167.5 1468 1221 1441.28 1221 1370.72 1167.5 1344Z" fill="#6B6E74" fill-rule="evenodd"/><path d="M990 1344 990 1519 1066 1481.46 1066 1381.54 990 1344Z" fill="#6B6E74" fill-rule="evenodd"/><path d="M0 62.0002 107 62.0002 107 26.724 53.4999 0 0 26.724 0 62.0002Z" fill="#6B6E74" fill-rule="evenodd" transform="matrix(-1 0 0 1 1351 1097)"/><path d="M65.5 0 0 32.543 0 118.457 65.5 151 129.818 119.044 46.5178 76.6579 51.0147 67.932 131 108.632 131 32.543 65.5 0Z" fill="#6B6E74" fill-rule="evenodd" transform="matrix(-1 0 0 1 1154 949)"/><path d="M65.0001 0 0 32.5099 0 44.361 53.9585 72.0002 130 33.0492 130 32.5099 65.0001 0Z" fill="#6B6E74" fill-rule="evenodd" transform="matrix(-1 0 0 1 885 1084)"/><path d="M66 0 0 33.5001 65.9999 67 65.9999 31.4188 66 31.4188 66 0Z" fill="#6B6E74" fill-rule="evenodd" transform="matrix(-1 0 0 1 821 1128)"/><path d="M0.000146285 0 0.000146285 20.3877 0 20.3877 0 45 43.0003 22.5 38.9634 20.3877 0.000146285 0Z" fill="#6B6E74" fill-rule="evenodd" transform="matrix(-1 0 0 1 885 1139)"/><path d="M53.7763 0 0 27.703 0 35.4153 64.7804 68.0001 126 37.2063 53.7763 0Z" fill="#6B6E74" fill-rule="evenodd" transform="matrix(-1 0 0 1 885 1167)"/><path d="M65.5 0 0 32.7586 0 119.241 65.5 152 131 119.241 131 45.191 61.7094 80.6822 57.2125 71.8985 131 34.104 131 32.7586 65.5 0Z" fill="#6B6E74" fill-rule="evenodd" transform="matrix(-1 0 0 1 1154 1220)"/><path d="M53.4999 0 0 26.724 0 97.2757 53.4999 124 105.76 97.8952 48.8427 68.7775 56.4489 53.9384 107 79.7991 107 26.724 53.4999 0Z" fill="#6B6E74" fill-rule="evenodd" transform="matrix(-1 0 0 1 1285 973)"/><path d="M53.5 0 2.97757 25.4403 54.4486 51.9841 46.8425 66.9431 0 42.7862 0 98.0605 53.5 125 107 98.0605 107 26.9396 53.5 0Z" fill="#6B6E74" fill-rule="evenodd" transform="matrix(-1 0 0 1 803 1221)"/><path d="M53.4999 124 107 97.2757 107 26.724 53.4999 0 0 26.724 0 97.2757 53.4999 124Z" fill="#6B6E74" fill-rule="evenodd" transform="matrix(-1 0 0 1 1221 851)"/><path d="M76 175 76 0 0 37.5412 0 137.459 76 175Z" fill="#6B6E74" fill-rule="evenodd" transform="matrix(-1 0 0 1 1066 800)"/><path d="M894.342 948.997 959.543 981.597 959.543 1055.89 875.446 1012.83 870.97 1021.57 959.543 1066.93 959.543 1067.66 894.342 1100.26 829.142 1067.66 829.142 981.597 894.342 948.997Z" fill="#6B6E74" fill-rule="evenodd"/></g></svg>